<svg width="72" height="62" fill="none" xmlns="http://www.w3.org/2000/svg"><path d="M66.843 32.497c-.015-.015-.03-.024-.04-.04-1.358-1.437-3.462-2.076-6.823-2.076-1.21 0-2.844.084-4.448.256l.024-26.784c0-2.096-1.718-3.8-3.831-3.8H4.467C2.353.054.64 1.758.64 3.854v46.834c0 2.1 1.714 3.798 3.828 3.798h12.687c.252.383.514.766.813 1.124 3.346 4.035 9.2 6.087 17.401 6.087 6.248 0 12.707-1.149 16.984-1.91l1.566-.275c5.195-.893 8.027-2.027 9.795-3.892.762-.284 1.743-.79 2.129-1.566.199-.416.228-.873.068-1.295a1.92 1.92 0 0 0-.638-.83c.203-.28.372-.56.52-.844.62-.304 1.259-.742 1.545-1.33.208-.413.228-.873.069-1.296-.168-.437-.5-.76-.906-1.011a10.391 10.391 0 0 0-.068-.78c.092-.143.178-.285.262-.428.945-.328 2.328-.967 2.832-2.002.248-.5.278-1.06.08-1.571-.338-.908-1.259-1.428-2.23-1.737a.633.633 0 0 1 .169-.329c.214-.393.514-.8.768-1.242 1.144-.427 2.664-1.188 3.243-2.37a2.41 2.41 0 0 0 .1-1.93c-.674-1.781-3.154-2.365-4.813-2.561zm-1.007 6.812-5.867.864 5.63.619c.442 1.34.809 3.848-1.51 5.997 0 0 .026.06.065.157l-4.63.61 4.903.47c.118.766.087 1.772-.487 2.714l-3.858 1.115 3.125-.084c-.008.604-.598 3.17-9.577 4.717-10.23 1.762-38.922 7.937-34.475-14.332C23.601 19.888 47.63 10.19 52.521 10.19v21.44c-2.654.416-5.005.873-7.077 1.33-2.291-.31-7.754-.919-10.606-.06l6.502 1.075c-5.854 1.59-8.394 3.005-8.394 3.005 6.804-1.954 14.45-3.122 18-3.603 6.037-.663 12.697-.236 14.03 1.173 2.277 2.41 1.55 3.99.86 4.76z" fill="#8A8A8E"/></svg>