<svg width="72" height="60" fill="none" xmlns="http://www.w3.org/2000/svg"><path d="M66.947 27.114c-1.825-1.885-3.934-3.416-6.155-4.787-.204-.13-.276-.262-.326-.493-.341-1.522-.204-3.064-.21-4.595-.018-3.154.011-6.308-.018-9.452-.03-2.328-1.822-4.101-4.17-4.222-.142-.01-.284-.01-.426-.01-7.92 0-15.834 0-23.75.01-.833 0-1.606-.242-2.399-.414-2.842-.604-5.582-1.531-8.337-2.418C20.44.501 19.702.34 18.98.148h-.554c.046.101.067.222.137.313.753.937 1.516 1.874 2.278 2.811l.214.282H8.153c-2.257 0-4.031 1.461-4.402 3.608-.05.282-.061.564-.061.856 0 3.578-.005 7.155.005 10.742 0 .262-.071.403-.305.514a7.815 7.815 0 0 0-.97.564c.406-.02.817-.05 1.27-.08v.312c0 1.35-.005 2.7 0 4.04a.46.46 0 0 1-.229.444c-.585.403-1.159.796-1.723 1.209-.437.322-.849.655-1.27.987v.122c.96.19 1.92.392 2.881.574.27.05.346.17.346.443-.005 5.069-.005 10.127-.005 15.196 0 4.04-.005 8.091 0 12.142 0 2.166 1.433 3.9 3.548 4.293.285.06.59.08.884.08h47.682c2.501 0 4.393-1.794 4.432-4.262.041-2.469.01-4.928.01-7.386v-9.18c1.023.202 1.872.635 2.517 1.4 1.063 1.24 2.11 2.49 3.162 3.75.534.644 1.057 1.3 1.597 1.954.156.182.34.333.528.514.055-.07.091-.09.106-.13.865-1.845 1.765-3.649 2.583-5.523.36-.826.62-1.754.803-2.65.233-1.138.005-2.297-.259-3.416-.696-2.942-2.252-5.41-4.336-7.557zm2.44 12.344c-.294 1.501-.579 2.992-1.256 4.413-.101-.221-.198-.443-.309-.654-.773-1.511-1.77-2.862-2.806-4.202-.957-1.23-2.187-2.076-3.52-2.822-2.647-1.481-5.463-2.589-8.31-3.627a.26.26 0 0 0-.177-.01c1.794.968 3.588 1.935 5.387 2.902-.016.03-.03.07-.045.1-1.012-.27-2.039-.513-3.04-.825-1.572-.464-1.093-.242-4.698-1.32-6.531-1.764-7.574-.595-7.574-.595 6.288.655 7.53 1.945 10.773 3.608-.163.422-.316.836-.469 1.25-.233.624-.463 1.248-.712 1.873-.152.393-.132.756.016 1.149 1.297 3.356 2.648 6.71 3.934 10.067.072.181.112.392.127.584v5.774c-.01.11-.01.242-.06.353 0 .01-.015.02-.02.03-.57.665-1.282.816-2.161.816-10.543-.03-21.086-.01-31.623-.01-5.038 0-10.076 0-15.108-.01-.254 0-.519-.01-.763-.05-1.179-.192-1.875-1.018-1.952-2.338-.025-.564 0-1.128 0-1.703 0-.07.03-.151.066-.221 1.297-2.5 2.303-5.12 3.3-7.74.075-.2.152-.392.213-.604-.895 1.653-2.165 2.983-3.518 4.243l-.111-.03c.056-.827.066-1.663.183-2.49.457-3.254.945-6.509 1.423-9.764 0-.02-.01-.04-.03-.12-.498 1.632-.987 3.214-1.47 4.786h-.055v-.464c0-3.033-.005-6.056 0-9.089 0-.182.04-.383.121-.544.692-1.511 1.404-3.013 2.105-4.514.193-.404.05-.786-.386-.887a39.37 39.37 0 0 0-2.135-.383c-.458-.08-.915-.12-1.454-.182.173-.11.285-.18.396-.261a46.643 46.643 0 0 0 9.557-8.334c.142-.161.412-.322.264-.595-.137-.251-.437-.211-.665-.16-.905.19-1.805.402-2.705.634-.432.101-.849.252-1.296.343l9.415-7.92c-2.716-1.865-5.405-3.709-8.094-5.553.01-.03.02-.05.03-.08 5.221.916 10.443 1.823 15.739 2.74-1.628-1.743-3.197-3.426-4.82-5.16.133.031.205.041.265.061 5.363 1.774 10.715 3.557 16.084 5.3 5.133 1.663 10.004 3.88 14.446 6.953 1.796 1.24 3.421 2.67 4.687 4.454.626.887 1.118 1.834 1.343 2.912.014.081-.03.242-.096.283-.437.241-.737.604-.972 1.027a4.771 4.771 0 0 0-.59 2.48c.02.483-.162.735-.66.735-.407 0-.819-.04-1.21-.141-.52-.131-1.027-.323-1.54-.494-.087-.02-.163-.05-.25-.08 1.128.725 2.277 1.37 3.64 1.49.59.051 1.19.01 1.668-.422.158-.141.218-.283.132-.504-.245-.645-.072-1.21.417-1.693.173-.171.314-.202.549-.071 2.296 1.37 4.421 2.942 6.303 4.837 1.097 1.098 2.068 2.288 2.882 3.618 1.307 2.125 1.673 4.412 1.196 6.85z" fill="#8A8A8E"/><path d="M39.02 22.932c-.836-.13-1.67-.282-2.5-.453-.203-.04-.3-.01-.418.161-.295.413-.733.544-1.221.453-.448-.08-.835-.342-.876-.786-.036-.443-.296-.493-.612-.574a1.418 1.418 0 0 1-.295-.08c-.153-.071-.255-.02-.366.1-.723.837-1.009 1.794-.765 2.882.358 1.602 1.906 2.73 3.708 2.73.01.02.015.05.02.082.524-.131 1.069-.202 1.558-.403 1.58-.625 2.44-2.147 2.16-3.709-.041-.242-.122-.353-.394-.403z" fill="#8A8A8E"/></svg>