<svg width="71" height="74" fill="none" xmlns="http://www.w3.org/2000/svg"><path d="M70.76 19.99c-2.018.93-5.511 5.26-5.511 5.26-.37-.113-.88-.176-1.468-.203V11.939c0-1.996-1.638-3.614-3.662-3.614H43.14c-.147-.805-.327-1.515-.56-1.955 0 0 3.735-4.132 4.321-6.253 0 0-.127-1.515-5.857 6.378l-.003 1.83H14.957c-2.022 0-3.662 1.618-3.662 3.614v9.458l-2.787 1.084s-.31 1.096 2.787.548v12.987c-3.078 3.528-7.543 8.72-8.016 9.692-.729 1.487-1.53 7.219-2.468 8.486 0 0 1.617.832 3.78-8.212l6.704-6.716v17.252c0 1.997 1.64 3.615 3.662 3.615H40.4l-7.794 9.138c-8.922 2.968-7.934 4.478-7.934 4.478 1.189-1.038 6.897-2.365 8.336-3.22 1.097-.647 7.62-7.313 10.611-10.396h12.539c.273.382.592.238.592.238l.051-.238h3.319c2.024 0 3.662-1.619 3.662-3.615v-29.48l1.595-.274c6.922-6.905 5.383-6.774 5.383-6.774zM48.587 9.458c2.103-.104 3.087-.18 3.22 1.438 0 0-3.14-.472-5.415.818 0 0 .09-2.158 2.195-2.256zM19.392 48.08c-.564-.468-.897-.819-.897-.819-.168-.377-.322-.746-.478-1.115-.438-.755-.732-1.51-.846-2.242-6.428-18.867 8.953-23.596 18.208-25.462.173 1.187 1.025 5.557 4.5 9.112l-.218-.166-16.288 24.508c-1.384-1.128-2.823-2.441-3.98-3.816zm8.919 7.354s-2.273-1.39-4.773-3.407l19.46-22.04c2.611 1.541 6.091 2.57 10.754 2.476 0 0 .02.314.045.135-.009 9.202-1.043 29.012-25.486 22.836zm26.671-24.378c-17.08.346-18.413-14.33-18.413-14.33 7.217-2.203 11.271.795 14.023 2.782 5.738 4.158 4.39 11.548 4.39 11.548zm2.14-8.698c-.737 2.526 2.004-.796-11.122-8.352l.146-.356s4.883-1.56 8.545 1.326c3.215 2.545 3.169 4.855 2.432 7.382zm2.268-1.466c.82-2.454-.273-5.399-.273-5.399 1.636-.197 1.75.77 2.077 2.823.32 2.055-1.804 2.576-1.804 2.576z" fill="#8A8A8E"/></svg>