<svg width="63" height="61" fill="none" xmlns="http://www.w3.org/2000/svg"><mask id="a" style="mask-type:luminance" maskUnits="userSpaceOnUse" x="0" y="0" width="63" height="61"><path d="M62.372.947H.905v59.855h61.467V.947z" fill="#fff"/></mask><g mask="url(#a)" fill="#8A8A8E"><path d="M57.655 29.426V4.966c0-2.221-1.85-4.019-4.125-4.019H7.897c-2.274 0-4.125 1.798-4.125 4.018v44.43c0 2.216 1.85 4.018 4.125 4.018h7.287A30.14 30.14 0 0 0 35.007 60.8a31.18 31.18 0 0 0 4.742-.363c5.25-.81 9.955-3.278 13.503-7.025h.278c2.276 0 4.125-1.802 4.125-4.018v-2.608a22.088 22.088 0 0 0 1.554-12.449 17.882 17.882 0 0 0-1.554-4.912zM9.878 42.961l1.873.097-1.041 1.55a26.29 26.29 0 0 1-.832-1.647zm8.954 10.624a.174.174 0 0 0-.043-.023 30.475 30.475 0 0 1-1.888-1.471l2.375-.815-.444 2.309zm9.195 4.236 1.567-1.769.813 2.277a29.263 29.263 0 0 1-2.38-.508zm12.42.368.92-2.51 1.596 1.835c-.823.27-1.655.498-2.516.675zm12.356-7.486-1.688 1.727-.794-2.635 2.696.633c-.072.093-.139.186-.214.275zm.765-1.001-4.49-1.061 1.372 4.548a21.154 21.154 0 0 1-6.627 4.018l-2.774-3.17-1.578 4.325c-.018.004-.037.004-.056.009a28.7 28.7 0 0 1-4.408.34c-1.23 0-2.439-.098-3.644-.252l-1.453-4.05-2.797 3.16a27.705 27.705 0 0 1-7.502-3.482l.784-4.083-4.226 1.448a27.023 27.023 0 0 1-4.978-6.029l2.09-3.12-3.796-.204a26.828 26.828 0 0 1-1.779-6.141c-1.97-12.068 2.6-24.07 12.23-32.17l2.285-1.677h19.542l-5.924 1.676C22.285 7.614 13.425 20.804 15.692 34.724c.821 5.038 3.613 9.46 7.85 12.459a19.793 19.793 0 0 0 11.484 3.65c1.038 0 2.084-.08 3.118-.242 5.994-.922 11.126-6.579 11.198-12.347.038-2.566-.92-4.88-2.76-6.695-2.367-2.333-6.124-3.73-10.045-3.73-1.74 0-3.413.266-4.99.797-.364.12-.723.186-1.044.186-.898 0-1.123-.461-1.228-.908-.272-1.2 1.285-2.719 1.803-3.217.142-.14.276-.274.39-.4a13.278 13.278 0 0 1 6.628-3.04c4.36-.67 8.778.358 12.354 2.886 3.586 2.533 5.944 6.276 6.637 10.54.87 5.313-.387 10.635-3.52 15.039z"/><path d="M37.254 22.057c-1.348 0-2.439 1.066-2.439 2.374 0 1.313 1.091 2.379 2.44 2.379 1.347 0 2.438-1.066 2.438-2.379 0-1.308-1.09-2.374-2.439-2.374zm0 3.915c-.87 0-1.578-.689-1.578-1.54 0-.848.709-1.537 1.578-1.537.872 0 1.578.689 1.578 1.536 0 .852-.706 1.541-1.578 1.541z"/></g></svg>