<svg width="62" height="62" viewBox="0 0 62 62" fill="none" xmlns="http://www.w3.org/2000/svg">
<mask id="mask0_28_111" style="mask-type:luminance" maskUnits="userSpaceOnUse" x="0" y="0" width="62" height="62">
<path d="M61.4672 0.413086H0V61.336H61.4672V0.413086Z" fill="white"/>
</mask>
<g mask="url(#mask0_28_111)">
<path d="M48.0307 3.71735C19.9992 33.6179 11.8818 54.9124 11.8818 54.9124C17.9701 61.9137 28.3464 61.3237 28.3464 61.3237C39.2835 61.6625 45.9816 54.9414 45.9816 54.9414C59.573 41.3742 57.8995 2.83761 57.8995 2.83761C55.1531 -3.09056 48.0307 3.71735 48.0307 3.71735Z" fill="#8A8A8E"/>
<path d="M4.78897 27.1001C4.78897 27.1001 0.500761 35.6004 7.57929 49.9029L26.3904 8.91992C26.1756 8.99736 9.42326 14.7897 4.78897 27.1001Z" fill="#8A8A8E"/>
</g>
</svg>
