<svg width="73" height="73" fill="none" xmlns="http://www.w3.org/2000/svg"><rect x=".538" y=".844" width="72" height="72" rx="36" fill="#8A8A8E"/><g clip-path="url(#a)" fill="#fff"><path d="M36.205 25.14c-.489.277-.693.858-.513 1.43.024.075-.308.427-1.793 1.889l-1.816 1.795-.28-.131c-.256-.117-.337-.131-.807-.131-.488 0-.54.01-.84.15-.44.206-.715.468-.929.895-.17.347-.175.37-.175.872 0 .473.014.548.132.802l.133.276-1.816 1.795c-1.48 1.468-1.836 1.796-1.912 1.772-.579-.178-1.172.028-1.451.516-.119.202-.138.286-.138.586 0 .319.014.384.157.61.47.773 1.64.74 2.044-.057.133-.258.17-.713.08-.942-.042-.103.043-.197.997-1.14.934-.923 1.034-1.002.953-.815-.28.661-.57 1.74-.693 2.578-.393 2.7.28 5.574 1.84 7.805l.262.375-.356.356c-.327.333-.351.375-.351.563 0 .197.01.21.916 1.106 1.223 1.21 1.024 1.21 2.248 0 .797-.783.92-.923.948-1.078l.029-.178-.944-.938c-.517-.516-.991-.947-1.048-.96-.166-.043-.304.023-.588.294l-.27.254-.314-.483a10.485 10.485 0 0 1-1.58-4.163c-.108-.726-.108-2.076.005-2.83a10.436 10.436 0 0 1 1.414-3.9c.223-.376.313-.484.365-.46.356.15.489.178.882.173.313 0 .494-.023.67-.094a2.036 2.036 0 0 0 1.161-1.125c.152-.38.157-1.064.005-1.387l-.1-.225.342-.22c.19-.118.56-.328.825-.46 3.33-1.673 7.234-1.462 10.393.558l.441.281-.266.268c-.194.196-.27.309-.294.44l-.028.178.977.961.972.966.185-.028c.157-.029.3-.15 1.091-.938.883-.872.916-.914.916-1.092 0-.178-.034-.22-.94-1.111-.891-.881-.943-.923-1.119-.923-.161 0-.218.037-.545.346l-.36.352-.38-.258c-2.358-1.608-5.384-2.26-8.23-1.772-.764.132-1.921.46-2.348.661-.08.043.313-.384.897-.96.953-.947 1.048-1.032 1.152-.99.195.07.688.047.892-.047.256-.112.564-.468.64-.73a1.156 1.156 0 0 0-.522-1.327c-.227-.136-.294-.15-.616-.15-.308 0-.389.018-.602.14zm.882.778c.128.164.123.31-.01.47a.349.349 0 0 1-.54-.006c-.138-.154-.138-.304-.01-.464.076-.093.138-.121.28-.121.142 0 .204.028.28.121zm-5.612 4.96c.47.215.75.74.65 1.223a1.165 1.165 0 0 1-.939.928c-.488.099-1.02-.178-1.238-.642-.213-.455-.128-.905.242-1.27.365-.366.825-.45 1.285-.24zm15.317.497.521.515-.536.53-.53.525-.532-.525-.536-.53.522-.515c.284-.282.53-.516.545-.516.014 0 .261.234.546.516zm-21.398 6.004c.148.113.171.38.043.52-.185.202-.63.015-.63-.267 0-.154.194-.351.346-.351.061 0 .17.042.242.098zm6.124 10.12-.545.54-.532-.53-.536-.525.546-.54.545-.538.532.525.536.53-.546.539z"/><path d="M32.89 33.775c-.622.614-.779.792-.779.895 0 .16 3.966 9.975 4.06 10.046.038.028 1.006.407 2.15.843l2.077.793.63 1.242c.347.684.66 1.28.703 1.322.047.056.142.084.265.084.195 0 .204-.01 3.245-3.014 3.035-3 3.045-3.01 3.045-3.202 0-.121-.029-.215-.08-.262-.048-.042-.65-.352-1.343-.694l-1.257-.623-.754-1.95a90.32 90.32 0 0 0-.84-2.12l-.085-.168-4.971-1.964c-2.732-1.078-5.042-1.969-5.128-1.978-.151-.019-.204.019-.939.75zm5.767 1.978L43.33 37.6l.74 1.894.74 1.889-2.106 2.09-2.11 2.091-1.922-.731-1.92-.731-1.87-4.618c-1.029-2.54-1.868-4.64-1.868-4.668 0-.029.033-.08.075-.118.062-.051.394.258 2.49 2.33l2.42 2.39-.142.3c-.541 1.15-.076 2.448 1.072 2.991.365.17.379.174.939.174.483 0 .611-.019.844-.108a2.41 2.41 0 0 0 1.276-1.266c.09-.225.109-.351.109-.83 0-.552-.005-.567-.175-.927-.55-1.135-1.879-1.599-3.032-1.06l-.298.14-2.42-2.39c-2.096-2.072-2.409-2.4-2.357-2.46.038-.043.09-.076.119-.076.028 0 2.153.83 4.724 1.847zm1.798 3.638c.308.13.678.525.782.825.238.693-.07 1.42-.74 1.753-.716.351-1.579.042-1.93-.699-.157-.337-.166-.81-.019-1.134a1.442 1.442 0 0 1 1.907-.745zm5.839 3.07c.498.244.901.45.901.46 0 .004-1.138 1.134-2.533 2.512l-2.533 2.503-.46-.905-.46-.904 2.082-2.058a196.772 196.772 0 0 1 2.092-2.053c.005 0 .417.201.91.445z"/></g><defs><clipPath id="a"><path fill="#fff" transform="translate(24 25)" d="M0 0h24.286v24H0z"/></clipPath></defs></svg>