<svg width="73" height="73" fill="none" xmlns="http://www.w3.org/2000/svg"><rect x=".92" y=".844" width="72" height="72" rx="36" fill="#8A8A8E"/><path d="M43.039 25.084c-.301.108-.677.352-.839.544-.074.084-.472.67-.894 1.308l-.764 1.153-6.485.014-6.486.014-.24.099c-.575.239-.992.712-1.145 1.293-.074.272-.078.844-.065 6.694l.014 6.399.149.314c.19.412.523.75.93.942l.311.15 3.859.014c3.02.01 3.858.023 3.845.07-.01.028-.135.544-.274 1.144l-.25 1.083-.787.018c-.75.015-.797.02-1.024.141-.297.16-.593.492-.686.774a1.92 1.92 0 0 0-.074.515v.295h-.829c-.815 0-.838.005-.963.113-.112.098-.13.15-.13.356s.018.258.13.357l.13.112H43.246l.13-.112c.111-.099.13-.15.13-.357 0-.206-.019-.258-.13-.356-.125-.108-.148-.112-.964-.112h-.829v-.296c0-.164-.032-.394-.074-.515-.093-.282-.389-.614-.685-.774-.228-.122-.274-.126-1.024-.14l-.788-.02-.25-1.082a57.72 57.72 0 0 0-.273-1.144c-.014-.047.824-.06 3.845-.07l3.858-.014.31-.15c.408-.192.742-.53.932-.942l.148-.314.014-6.399c.014-7.158.032-6.712-.315-7.256-.31-.488-.843-.792-1.464-.84l-.329-.027.084-.174c.264-.548.231-1.303-.084-1.884-.171-.319-.56-.67-.926-.849-.283-.13-.366-.15-.802-.159-.38-.014-.537.005-.722.07zm1.065.966c.422.178.709.652.663 1.097a1.18 1.18 0 0 1-.116.403c-.047.08-.792 1.017-1.65 2.077l-1.565 1.93-.653-.496c-.361-.277-.653-.516-.644-.54.005-.023.635-.988 1.399-2.146 1.325-2.006 1.404-2.114 1.635-2.25a.834.834 0 0 1 .51-.14c.148 0 .333.027.421.065zm-4.261 3.084c-.02.033-.492.75-1.047 1.594-1.117 1.702-.964 1.542-1.57 1.608-.39.042-.997.276-1.353.52-.538.375-.932.966-1.13 1.706-.103.37-.117 1.824-.024 2.274.246 1.177.315 1.312.676 1.312.162 0 .246-.037.45-.196.505-.394.56-.408 1.894-.436 1.08-.029 1.205-.038 1.446-.136.579-.23 1.06-.736 1.287-1.355.135-.352.172-1.003.084-1.42l-.065-.305 2.112-2.61 2.108-2.607.584-.005c.556 0 .602.01.834.131.199.104.273.178.375.38l.13.248v9.132h-14.74l-.135.136c-.107.108-.134.178-.134.333 0 .243.06.356.231.445.116.06 1.015.07 7.458.07h7.324l-.014 1.238-.014 1.237-.139.202a1.206 1.206 0 0 1-.342.31l-.204.107H27.794l-.204-.108a1.268 1.268 0 0 1-.343-.31l-.139-.2-.014-1.238-.014-1.238h.7c.922 0 1.065-.07 1.065-.516 0-.154-.027-.224-.134-.332l-.134-.136h-1.492v-4.542c0-3.347.014-4.58.056-4.697.083-.253.222-.408.472-.535l.232-.117h6.017c4.8 0 6.008.014 5.98.056zm.875 3.132c.079.075.06.103-.394.665l-.481.586-.529-.389a19.553 19.553 0 0 1-.57-.436c-.023-.023.135-.295.39-.675l.426-.633.537.404c.297.22.575.435.621.478zm-2.02 1.645c.825.619.839.633.89.853.125.544.004 1.04-.325 1.378-.338.352-.384.361-1.686.394-1.093.028-1.176.033-1.5.15a2.49 2.49 0 0 1-.357.112c-.042-.042-.111-.768-.111-1.12.004-1.167.43-1.917 1.283-2.24.278-.104.708-.188.875-.17.056.01.473.296.931.643zm-.982 11.151c.13.554.25 1.065.269 1.135l.032.131H36.86c-1.088 0-1.163-.005-1.14-.084.015-.042.13-.535.26-1.088s.246-1.036.255-1.069c.018-.046.167-.056.634-.046l.612.014.236 1.008zm2.761 2.386c.111.118.134.174.134.375v.24h-7.504v-.24c0-.201.023-.257.134-.375l.135-.136H40.343l.134.136z" fill="#fff"/><path d="M29.906 39.105c-.107.108-.134.178-.134.333 0 .107.023.234.046.285.06.108.282.23.426.23.18 0 .398-.169.445-.337.13-.502-.427-.868-.783-.511z" fill="#fff"/></svg>