<svg width="100" height="99" fill="none" xmlns="http://www.w3.org/2000/svg"><rect x=".565" width="99" height="99" rx="49.5" fill="#8A8A8E"/><path d="m49.122 20.598-.305.375.035 2.742.036 2.754.328.281c.457.399 1.125.387 1.535-.023l.305-.317V20.81l-.293-.281c-.211-.223-.41-.293-.809-.293-.434 0-.562.058-.832.363zM35.529 24.243c-.258.304-.305.457-.258.797.07.492 2.297 4.394 2.73 4.769.434.398 1.032.363 1.477-.082.305-.305.352-.422.293-.797-.059-.469-2.414-4.64-2.754-4.91-.105-.082-.422-.152-.691-.152-.399 0-.54.058-.797.375zM62.856 24.125c-.164.152-.82 1.207-1.476 2.344-1.172 2.05-1.336 2.496-1.114 3.082.094.234.657.527 1.008.527.575-.012.832-.328 2.098-2.531 1.418-2.461 1.535-2.848.984-3.387-.375-.387-1.101-.398-1.5-.035zM47.775 29.68c-8.285 1.043-14.778 7.043-16.535 15.28-.364 1.677-.399 5.321-.06 7.09.95 5.134 3.915 9.645 8.216 12.505 2.074 1.382 1.98 1.148 2.05 4.957l.06 3.047.327.668c.352.714 1.067 1.417 1.664 1.629.34.128.375.199.492.913.247 1.56 1.196 2.872 2.59 3.551l.785.387h5.274l.738-.387c1.418-.738 2.414-2.144 2.567-3.597.07-.645.082-.668.62-.938.294-.152.739-.492.985-.762.797-.879.82-1.007.89-4.394l.06-3.047.327-.563c.246-.41.563-.703 1.172-1.101 4.7-3 7.84-7.652 8.766-13.02.328-1.886.328-4.605-.012-6.515-1.324-7.688-7.219-13.77-14.941-15.422-.903-.2-1.676-.258-3.399-.293-1.218-.023-2.414-.012-2.636.012zm4.687 2.332c7.219 1.09 12.95 6.773 14.133 14.004.387 2.39.176 5.297-.563 7.617-1.23 3.855-3.539 6.89-7.054 9.258-.657.433-1.371.996-1.582 1.242-.785.89-1.184 2.168-1.184 3.82v.797H43.673v-1.102c0-1.359-.293-2.402-.902-3.199-.516-.68-.492-.656-2.028-1.699-1.547-1.043-3.773-3.258-4.699-4.664a18.272 18.272 0 0 1-2.648-6.328c-.293-1.406-.293-4.805 0-6.211 1.136-5.32 4.418-9.621 9.164-11.988 2.976-1.489 6.61-2.051 9.902-1.547zm3.75 39.527c0 .317-.082.668-.187.82-.422.61-.457.61-6.082.61-4.723 0-5.274-.024-5.578-.2-.41-.246-.692-.796-.692-1.37v-.422h12.54v.562zm-2.46 3.832c0 .633-.68 1.547-1.466 1.969-.422.234-.644.258-2.343.258-1.7 0-1.922-.024-2.344-.258a3.063 3.063 0 0 1-.727-.528c-.27-.28-.726-1.218-.738-1.476 0-.105.844-.14 3.809-.14 3.34 0 3.808.023 3.808.175z" fill="#fff"/><path d="M47.482 35.96c-.422.247-.516.493-.528 1.278v.774l-.492.14c-.281.082-.797.305-1.16.48l-.645.317-.55-.504c-.47-.445-.61-.515-1.043-.515-.504 0-.54.035-2.18 1.675-1.594 1.618-1.664 1.7-1.664 2.157 0 .398.082.574.516 1.054l.515.563-.27.527c-.14.293-.351.774-.468 1.078l-.211.563h-.574c-.715 0-1.301.258-1.489.656-.187.41-.175 4.5.012 4.91.188.434.668.645 1.418.645h.633l.328.844c.176.468.398.984.492 1.136.164.258.153.305-.363.82-.457.47-.54.622-.54 1.008 0 .446.083.551 1.677 2.121.914.915 1.793 1.688 1.945 1.723.387.094.82-.094 1.313-.586l.433-.41 1.055.422c.574.234 1.113.422 1.183.422.082 0 .13.27.13.75 0 1.441.081 1.476 3.093 1.476 2.238 0 2.285 0 2.613-.28.282-.247.328-.376.364-1.114.023-.457.105-.832.175-.832.059 0 .563-.188 1.102-.422l.996-.422.434.422c.55.539 1.078.703 1.582.492.492-.21 3.316-3.094 3.41-3.492.117-.445-.024-.762-.563-1.348l-.468-.504.363-.797c.199-.433.398-.925.433-1.09.07-.292.13-.316.903-.363.726-.035.855-.082 1.101-.363.282-.328.282-.375.282-2.672 0-1.453-.047-2.437-.13-2.59-.175-.328-.808-.562-1.511-.562-.363 0-.586-.047-.586-.129s-.188-.586-.422-1.125l-.422-.984.48-.516c.552-.598.68-.984.481-1.453-.07-.176-.832-1.02-1.687-1.875-1.524-1.512-1.559-1.535-2.075-1.535-.468 0-.585.058-1.03.515l-.505.516-.726-.328a12.04 12.04 0 0 0-1.137-.457l-.434-.14-.046-.81c-.036-.656-.094-.878-.305-1.09-.258-.245-.352-.257-2.637-.292-1.652-.012-2.437.023-2.601.117zm3.34 2.72c0 .879.245 1.16 1.242 1.406.855.21 2.086.738 2.613 1.113.55.399 1.207.328 1.746-.164l.457-.398.563.574.562.574-.422.48c-.574.622-.562.938.082 2.145.293.528.656 1.418.832 1.98.364 1.208.54 1.383 1.43 1.383h.621v1.758h-.621c-.89 0-1.066.176-1.43 1.383-.176.563-.539 1.453-.832 1.98-.644 1.22-.656 1.524-.047 2.18l.457.504-.574.574-.574.563-.48-.422c-.645-.586-1.032-.574-2.262.082-.89.469-1.63.762-2.461.95-.188.034-.469.198-.621.35-.235.235-.282.4-.282.938v.645h-1.605l-.07-.656c-.094-.868-.352-1.137-1.325-1.383a9.202 9.202 0 0 1-2.484-1.043c-.703-.457-1.195-.422-1.781.117l-.48.422-.575-.563-.574-.562.398-.457c.575-.633.551-1.078-.105-2.332-.293-.54-.633-1.383-.762-1.864-.316-1.136-.597-1.406-1.488-1.406h-.633v-1.758h.68c.879 0 1.113-.234 1.441-1.418.13-.48.469-1.312.762-1.851.656-1.254.68-1.7.105-2.332l-.398-.457.574-.563.586-.574.445.434c.61.597.961.574 2.426-.153.645-.328 1.488-.668 1.875-.761.938-.235 1.219-.54 1.313-1.383l.07-.668h1.605v.633z" fill="#fff"/><path d="M48.384 41.62c-2.38.516-4.477 2.438-5.262 4.806-.27.796-.316 1.136-.316 2.285 0 1.16.047 1.465.304 2.203.446 1.23.973 2.039 1.91 2.93 1.723 1.64 3.973 2.308 6.34 1.886.926-.164 2.66-1.02 3.399-1.676 1.43-1.265 2.273-3.07 2.367-5.05.059-1.465-.152-2.438-.82-3.727-1.477-2.824-4.758-4.336-7.922-3.656zm2.73 2.227a4.903 4.903 0 0 1 2.414 1.43c2.356 2.496 1.617 6.375-1.5 7.852-2.437 1.16-5.32.117-6.539-2.356-1.804-3.68 1.664-7.957 5.625-6.926zM25.568 34.203c-.258.316-.305.457-.258.832.035.258.129.54.223.621.082.082 1.125.715 2.32 1.406 2.45 1.407 2.86 1.524 3.363.938.328-.387.364-1.102.07-1.465-.117-.129-1.171-.797-2.355-1.476-2.473-1.418-2.812-1.512-3.363-.856zM71.505 34.778c-.902.515-1.91 1.101-2.25 1.3-.832.504-1.043 1.032-.68 1.735.188.351.504.504 1.031.492.329-.012 4.243-2.18 4.747-2.637.375-.351.363-1.16-.036-1.547-.503-.515-.96-.41-2.812.657zM21.982 47.762c-.434.445-.457 1.031-.059 1.5l.281.328 2.672.035c3 .035 3.258-.011 3.528-.656.128-.305.14-.48.035-.797-.246-.726-.34-.75-3.375-.75h-2.742l-.34.34zM72.01 47.598c-.446.246-.622.855-.399 1.394.105.258.305.469.48.54.176.07 1.489.116 2.942.116h2.648l.34-.34c.246-.257.34-.456.34-.773 0-.316-.094-.515-.34-.773l-.34-.34h-2.683c-2.11.012-2.743.047-2.989.176zM27.97 59.914c-1.196.68-2.286 1.36-2.438 1.524-.375.433-.352 1.031.082 1.465.574.562.844.492 3.281-.914 1.196-.692 2.262-1.348 2.38-1.465.14-.141.21-.387.21-.727 0-.433-.058-.562-.363-.82-.2-.164-.504-.305-.668-.305-.188 0-1.207.504-2.484 1.242zM69.032 58.777c-.632.27-.832 1.184-.363 1.7.316.363 4.23 2.636 4.676 2.73.398.082.996-.152 1.148-.445.164-.293.14-1.067-.035-1.301-.234-.305-4.43-2.695-4.828-2.742-.188-.024-.469 0-.598.058z" fill="#fff"/></svg>