<svg width="58" height="58" viewBox="0 0 58 58" fill="none" xmlns="http://www.w3.org/2000/svg">
<path d="M44.9613 1.85833C44.7234 2.07357 44.5535 2.572 44.0324 4.50911C43.6813 5.81185 43.3867 7.0013 43.3867 7.13724C43.3867 7.48841 43.7152 7.99818 44.0324 8.14544C44.6328 8.41732 45.4258 8.15677 45.641 7.60169C45.9129 6.922 46.8984 3.04778 46.8984 2.66263C46.8984 1.73372 45.6637 1.21263 44.9613 1.85833Z" fill="black"/>
<path d="M30.1326 4.25948C29.8494 4.36143 29.4416 4.57667 29.215 4.73526C28.9884 4.89386 25.3634 9.41378 21.1494 14.772L13.4916 24.5255L8.35993 27.4708C3.61344 30.2009 3.17165 30.4728 2.36735 31.2657C1.40446 32.2173 0.804068 33.1575 0.373599 34.4263C-0.0228853 35.5478 -0.11351 37.5868 0.169693 38.7989C0.543521 40.4189 1.55172 42.0501 2.84313 43.1263C3.59079 43.738 5.0068 44.4517 6.00368 44.7122C7.28376 45.0521 9.45876 44.9275 10.6595 44.463C10.7955 44.4177 11.4638 45.4939 13.7181 49.4134C16.8334 54.8396 17.3091 55.4966 18.5099 56.063C20.2318 56.856 22.1576 56.5728 23.5623 55.304C24.5252 54.4431 24.9556 53.5368 25.0123 52.2228C25.0463 51.5317 25.0123 51.056 24.8763 50.6255C24.7857 50.2857 23.9134 48.6431 22.9392 46.9665C21.9763 45.29 21.1834 43.8853 21.1834 43.8513C21.1834 43.806 21.8744 43.3868 22.7127 42.8997C24.9216 41.6196 24.9783 41.4271 23.8002 39.3767C23.415 38.7196 23.1091 38.1419 23.1091 38.0966C23.1091 38.0173 31.5259 36.3294 42.3103 34.2564C44.0548 33.9165 45.6748 33.5653 45.9013 33.4634C46.5131 33.1915 47.2267 32.4439 47.5552 31.7302C47.8951 30.9939 47.9517 29.7704 47.6685 29.1134C47.5779 28.8982 46.649 27.2556 45.6068 25.4657C44.5759 23.6646 43.7263 22.1692 43.7263 22.1239C43.7263 22.0786 44.2927 21.1837 44.9838 20.1415C46.5697 17.7626 46.5697 18.0232 44.9838 15.2931C44.3494 14.2056 43.7037 13.186 43.5677 13.0388C43.3412 12.8122 43.1939 12.7782 42.5822 12.7782C41.6306 12.7896 39.4896 12.9028 38.9006 12.9821L38.4361 13.0388L36.2951 9.32315C35.117 7.28409 33.9955 5.42628 33.7916 5.19972C33.599 4.98448 33.1685 4.65597 32.84 4.47472C32.0924 4.06691 30.9142 3.97628 30.1326 4.25948ZM31.8771 6.70636C32.149 6.95558 45.0517 29.1927 45.3916 29.997C45.5275 30.3142 45.5162 30.4161 45.3689 30.7446C45.1537 31.1864 44.8478 31.3677 44.2588 31.413L43.8396 31.4357L36.9295 19.4845C33.1345 12.9142 30.0193 7.488 30.0193 7.43136C30.0193 7.38605 30.2119 7.13683 30.4611 6.89894C30.9822 6.37784 31.4353 6.3212 31.8771 6.70636ZM34.9357 20.8325C38.4701 26.961 41.3474 31.9794 41.3248 32.0021C41.3021 32.0134 36.9181 32.8743 31.5713 33.9278C23.3584 35.5251 21.8177 35.797 21.6931 35.6724C21.6138 35.5817 20.2658 33.2708 18.6912 30.5407C16.0857 26.0095 15.8365 25.545 15.9724 25.3298C16.4256 24.6048 28.3654 9.52706 28.4334 9.59503C28.4787 9.64034 31.4013 14.704 34.9357 20.8325ZM42.8994 16.5165L43.6357 17.7966L42.99 18.7595C42.6388 19.2919 42.3216 19.711 42.2877 19.6771C42.2537 19.6431 41.6759 18.6575 40.9963 17.4794L39.7728 15.3497L40.3052 15.2817C40.5998 15.2364 41.1322 15.2138 41.506 15.2251L42.1744 15.2364L42.8994 16.5165ZM16.7541 31.9907C18.2607 34.5962 19.4728 36.7485 19.4615 36.7599C19.1443 37.0091 10.3197 42.0161 9.92321 42.1634C7.24977 43.1942 4.22516 41.9821 2.92243 39.354C2.49196 38.4817 2.45797 38.3232 2.40133 37.281C2.35602 36.3521 2.39001 36.0235 2.59391 35.3665C2.87711 34.4263 3.59079 33.3161 4.30446 32.7271C4.96149 32.172 13.8427 27.0517 13.9447 27.1649C13.99 27.2103 15.2474 29.3739 16.7541 31.9907ZM21.1834 39.6712C21.4552 40.1243 21.6931 40.5321 21.7158 40.5775C21.7498 40.6454 20.4017 41.495 20.0279 41.631C19.824 41.7103 18.8611 39.9997 19.0197 39.8411C19.1556 39.7052 20.515 38.8782 20.6283 38.8669C20.6736 38.8556 20.9228 39.2294 21.1834 39.6712ZM19.7107 46.1396L22.5994 51.1466V51.9622C22.5994 52.6872 22.5654 52.8118 22.2482 53.2083C21.8404 53.7294 21.0588 54.1485 20.5037 54.1485C19.9939 54.1372 19.2802 53.8087 18.9064 53.4009C18.7365 53.2196 17.3431 50.886 15.8138 48.2126C13.8201 44.7689 13.0498 43.3189 13.1291 43.2396C13.265 43.1036 16.6748 41.1212 16.7654 41.1325C16.7994 41.1325 18.1248 43.3868 19.7107 46.1396Z" fill="black"/>
<path d="M14.4314 34.4375C13.7856 34.698 13.6044 35.7516 14.0915 36.3293C14.3294 36.6012 14.454 36.6465 14.9524 36.6465C15.4509 36.6465 15.5755 36.6012 15.8134 36.3293C16.1079 35.9895 16.1872 35.2871 15.972 34.8793C15.7228 34.4375 14.9751 34.2109 14.4314 34.4375Z" fill="black"/>
<path d="M9.96875 37.0316C8.28086 37.9718 7.98633 38.0738 7.63516 37.9492C7.45391 37.8812 7.14805 37.6433 6.9668 37.4281C6.69492 37.0996 6.525 37.009 6.10586 36.9636C5.64141 36.907 5.53945 36.941 5.19961 37.2468C4.87109 37.5414 4.81445 37.666 4.81445 38.0965C4.81445 38.5269 4.88242 38.6855 5.27891 39.15C5.95859 39.9656 6.83086 40.3621 7.92969 40.3734C8.84727 40.3847 9.17578 40.2488 10.9316 39.2293C11.9852 38.6175 12.1777 38.391 12.1777 37.7679C12.1777 37.1675 11.8039 36.7258 11.2035 36.6351C10.8977 36.5785 10.6598 36.6578 9.96875 37.0316Z" fill="black"/>
<path d="M56.1871 6.5474C55.3375 6.98919 50.3305 9.78724 49.9906 10.0025C49.7867 10.1384 49.5715 10.365 49.5148 10.5122C49.107 11.3845 49.832 12.3814 50.7383 12.2001C51.1914 12.1095 57.4332 8.6431 57.7504 8.30326C57.9203 8.11068 57.9996 7.88412 57.9996 7.57826C57.9996 7.00052 57.8523 6.72865 57.4332 6.51341C57.0027 6.28685 56.6629 6.29818 56.1871 6.5474Z" fill="black"/>
<path d="M50.4441 17.1621C50.0137 17.3434 49.8438 17.6379 49.8438 18.1816C49.8438 18.7027 49.991 18.9859 50.3875 19.1898C50.8859 19.4504 54.9188 20.5039 55.4172 20.5039C56.0402 20.5039 56.5273 20.0281 56.5273 19.3937C56.5273 18.8047 56.2102 18.4082 55.5305 18.193C54.6809 17.9211 51.1465 16.9922 50.9652 16.9922C50.8746 17.0035 50.648 17.0715 50.4441 17.1621Z" fill="black"/>
</svg>
