<svg width="58" height="58" viewBox="0 0 58 58" fill="none" xmlns="http://www.w3.org/2000/svg">
<path d="M20.9344 2.11835C20.7758 2.2996 20.0281 3.29648 19.2691 4.36132L17.8871 6.2871L10.6598 6.34374L3.44375 6.40038L2.96797 6.71757C2.70742 6.88749 2.35625 7.23867 2.18633 7.49921L1.86914 7.97499L1.83516 25.2051L1.8125 42.4352L2.11836 43.0469C2.33359 43.4547 2.60547 43.7832 2.92266 44.0098L3.42109 44.3496L12.1324 44.3836L20.8438 44.4062V47.5781V50.75H16.8563C12.393 50.75 12.3363 50.7613 11.5887 51.5543C11.0902 52.0867 10.875 52.6531 10.875 53.4687C10.875 54.6129 11.4301 55.5191 12.4043 55.9723C12.8348 56.1762 13.4352 56.1875 25.8281 56.1875C38.2211 56.1875 38.8215 56.1762 39.252 55.9723C40.2262 55.5191 40.7812 54.6129 40.7812 53.4687C40.7812 52.6531 40.566 52.0867 40.0676 51.5543C39.3199 50.7727 39.2066 50.75 35.2645 50.75H31.7188V47.5781V44.4062H33.0781H34.4375V45.1992C34.4375 45.6637 34.5055 46.1734 34.6188 46.4227C34.8453 46.9777 35.4117 47.5555 35.9668 47.816C36.3973 48.0199 36.8957 48.0312 45.2898 48.0312C55.066 48.0312 54.5902 48.0652 55.3832 47.3176C55.5871 47.1137 55.859 46.7512 55.9723 46.502C56.1762 46.0715 56.1875 45.4031 56.1875 30.3594C56.1875 15.3156 56.1762 14.6473 55.9723 14.2168C55.859 13.9676 55.5871 13.6051 55.3832 13.4012C54.7262 12.7781 54.3523 12.6875 52.4605 12.6875H50.7613L50.7273 10.3312L50.6934 7.96367L50.3762 7.49921C50.2063 7.23867 49.8551 6.88749 49.5945 6.71757L49.1188 6.40038L39.7957 6.3664L30.4613 6.34374L30.1102 5.93593C29.5551 5.31289 28.966 5.05234 28.0371 5.05234C27.1875 5.05234 26.7684 5.21093 26.066 5.78867L25.6922 6.09452L24.0496 4.10078C23.1434 2.99062 22.3164 2.02773 22.2258 1.94843C21.8973 1.69921 21.2516 1.77851 20.9344 2.11835ZM25.9414 9.45898L30.1441 14.5566L29.827 14.6926C29.657 14.7605 26.7344 16.0293 23.3359 17.5019C19.9375 18.9859 17.0828 20.2094 16.9695 20.2434C16.8449 20.2773 16.2898 19.6996 15.0211 18.1816L13.2539 16.0633L13.6844 15.4742C17.298 10.4219 21.6934 4.32734 21.7047 4.33867C21.716 4.34999 23.6191 6.6496 25.9414 9.45898ZM28.4449 7.03476C29.0113 7.32929 28.932 7.97499 28.2523 8.53007L27.9125 8.81327L27.4367 8.23554L26.9496 7.64648L27.3688 7.27265C27.8105 6.88749 28.0711 6.83085 28.4449 7.03476ZM16.4258 8.22421C16.4258 8.2582 15.2703 9.88945 13.8656 11.8379L11.3055 15.3949L9.53828 16.8449C7.37461 18.6008 7.20469 18.782 6.76289 19.7109C5.91328 21.4894 6.42305 23.8457 7.91836 25.0238C8.16758 25.2164 8.66602 25.5223 9.02852 25.6922C9.60625 25.9641 9.82148 25.998 10.8297 25.998C11.9285 25.998 12.0078 25.9867 12.8008 25.5789C13.5711 25.1824 13.6391 25.1598 13.775 25.3523C13.8543 25.4543 14.7719 26.5871 15.8254 27.8672C17.1055 29.4191 17.8871 30.2687 18.1816 30.4387C18.7934 30.7785 19.4957 30.8691 20.2547 30.6992C20.7758 30.5859 20.991 30.4613 21.4781 29.9742C22.2145 29.2266 22.441 28.4789 22.2145 27.482C22.0559 26.7797 22.1578 26.927 19.8469 24.0949C18.884 22.9168 18.1477 21.9199 18.193 21.8746C18.2496 21.8293 21.4102 20.4473 25.2051 18.7934C29.0113 17.1508 32.2285 15.6894 32.3758 15.5535C32.5344 15.3949 32.625 15.1684 32.625 14.9191C32.625 14.6019 32.3645 14.2281 30.9258 12.4723C29.9855 11.3281 29.2266 10.3652 29.2266 10.3199C29.2266 10.2746 29.4531 10.048 29.7363 9.82148C30.2348 9.40234 30.6992 8.67734 30.6992 8.32617C30.6992 8.16757 31.5941 8.15625 39.5352 8.1789L48.3598 8.21289L48.6203 8.47343C48.8695 8.71132 48.8809 8.8246 48.9148 10.7051L48.9602 12.6875H42.7184C35.8309 12.6875 36.0121 12.6648 35.2418 13.4012C35.0379 13.6051 34.766 13.9676 34.6527 14.2168C34.4488 14.6473 34.4375 15.1797 34.4375 25.0012V35.3437H19.0312H3.625L3.64766 22.0559C3.68164 7.7371 3.64766 8.50742 4.24805 8.26953C4.49727 8.15625 16.4258 8.12226 16.4258 8.22421ZM53.7406 14.6586C54.2164 14.8625 54.375 15.2816 54.375 16.3805V17.2187H45.3125H36.25V16.3805C36.25 15.3043 36.4086 14.8625 36.8617 14.6586C37.3941 14.432 53.1855 14.432 53.7406 14.6586ZM14.8625 21.1383C15.0777 21.3762 15.0777 21.3762 13.6844 22.4977C12.0418 23.823 11.4867 24.1289 10.7617 24.1289C10.0934 24.1289 9.15313 23.6758 8.76797 23.1547C8.38281 22.6562 8.13359 21.8066 8.22422 21.3082C8.39414 20.3566 8.6207 20.0961 10.875 18.2609L11.8266 17.4793L13.2426 19.1898C14.0129 20.1301 14.7379 21.0023 14.8625 21.1383ZM54.375 30.3594V41.6875H45.3125H36.25V30.3594V19.0312H45.3125H54.375V30.3594ZM18.2949 25.2504C19.3371 26.5305 20.2434 27.6859 20.3113 27.8332C20.5492 28.3656 19.8809 28.9773 19.3031 28.7734C19.0879 28.6941 15.1797 24.0609 15.1797 23.891C15.1797 23.823 16.3465 22.8715 16.3805 22.9168C16.3805 22.9281 17.2414 23.9816 18.2949 25.2504ZM34.4375 39.8184V42.4805H19.2805H4.11211L3.89688 42.2426C3.7043 42.0273 3.68164 41.7781 3.64766 39.5805L3.61367 37.1562H19.0199H34.4375V39.8184ZM54.375 44.259C54.375 45.4031 54.2164 45.8676 53.752 46.0602C53.1742 46.298 37.4508 46.298 36.873 46.0602C36.4086 45.8676 36.25 45.4031 36.25 44.259V43.5H45.3125H54.375V44.259ZM29.9062 47.5781V50.75H26.2812H22.6562V47.5781V44.4062H26.2812H29.9062V47.5781ZM38.3457 52.7211C38.7648 52.9023 38.9348 53.2648 38.8102 53.7633C38.6516 54.3977 39.0254 54.375 25.8281 54.375C12.6309 54.375 13.0047 54.3977 12.8461 53.7633C12.7328 53.2762 12.8914 52.9023 13.2879 52.7324C13.843 52.4945 37.768 52.4832 38.3457 52.7211Z" fill="black"/>
<path d="M39.5918 23.7777C39.3426 23.891 38.9801 24.1629 38.7762 24.3668C38.0625 25.1258 38.0625 25.1031 38.0625 30.382C38.0625 35.7289 38.0625 35.6723 38.8668 36.4426C39.6258 37.1676 39.5578 37.1562 45.3352 37.1562C51.1805 37.1562 51.0785 37.1676 51.8488 36.3519C52.5625 35.593 52.5625 35.6156 52.5625 30.3594C52.5625 25.1031 52.5625 25.1258 51.8488 24.3668C51.0785 23.5512 51.1918 23.5625 45.3125 23.5625C40.4188 23.5625 40.0109 23.5851 39.5918 23.7777ZM50.1156 25.5336C50.3762 25.6355 50.5348 25.8055 50.6254 26.0547C50.7953 26.5758 50.7953 34.143 50.6254 34.6641C50.3875 35.3211 50.2402 35.3437 45.3352 35.3437C42.3332 35.3437 40.8152 35.2984 40.5547 35.2191C39.8977 34.9812 39.875 34.7887 39.875 30.382C39.875 26.032 39.909 25.7941 40.4867 25.5336C41.0078 25.307 49.5719 25.307 50.1156 25.5336Z" fill="black"/>
<path d="M43.1602 26.927C42.5938 27.1422 42.5938 27.1422 42.5938 30.3027C42.5938 33.0555 42.6051 33.3047 42.809 33.5426C42.9676 33.7352 43.1375 33.8145 43.466 33.8145C43.8398 33.8145 44.1684 33.6219 45.8223 32.4664C46.8871 31.7301 47.816 31.0391 47.8953 30.9484C47.9633 30.8465 48.0312 30.5859 48.0312 30.3594C48.0312 30.1328 47.9633 29.8723 47.8953 29.7703C47.816 29.6797 46.8984 29 45.8563 28.275C44.0777 27.0289 43.5566 26.7684 43.1602 26.927Z" fill="black"/>
<path d="M24.6953 39.1953C24.548 39.3426 24.4688 39.5691 24.4688 39.875C24.4688 40.668 24.6953 40.7812 26.2812 40.7812C27.8672 40.7812 28.0938 40.668 28.0938 39.875C28.0938 39.082 27.8672 38.9688 26.2812 38.9688C25.0691 38.9688 24.8992 38.9914 24.6953 39.1953Z" fill="black"/>
</svg>
