<svg width="58" height="58" viewBox="0 0 58 58" fill="none" xmlns="http://www.w3.org/2000/svg">
<g clip-path="url(#clip0_28_302)">
<path d="M3.74945 1.58614C2.49203 2.03926 1.43852 2.99083 0.770158 4.25958C-0.056795 5.82286 -0.000154373 4.53145 -0.000154373 23.5061C-0.000154373 42.4807 -0.056795 41.1893 0.770158 42.7525C1.44985 44.044 2.51469 44.9842 3.82875 45.4373C4.39516 45.6299 4.82563 45.6525 8.50727 45.6525H12.5627L12.8573 45.392C13.0838 45.2107 13.1745 44.9955 13.2198 44.6217C13.2764 44.1572 13.2424 44.0553 12.9366 43.7154L12.5967 43.3303L8.58657 43.2736C4.66703 43.217 4.57641 43.217 4.1686 42.9564C3.59086 42.6053 3.0811 41.9822 2.72992 41.2346L2.43539 40.6115L2.40141 29.7025L2.37875 18.8049H26.9608H51.5428V24.5256V30.2463H51.0331C50.4213 30.2463 49.9229 30.4389 49.4245 30.858L49.062 31.1639L48.0651 30.7674L47.0682 30.3709L47.0002 29.8158C46.8983 29.0568 46.6151 28.5018 46.0827 28.0486C45.437 27.4936 44.9045 27.3803 43.092 27.4369C41.608 27.4709 41.4834 27.4936 40.9737 27.7881C40.2713 28.2072 39.7616 29.0568 39.7616 29.8272C39.7616 30.3029 39.7276 30.3822 39.4557 30.4955C39.2745 30.5635 38.8213 30.7561 38.4362 30.9373C37.7565 31.2432 37.7338 31.2432 37.5413 31.0279C36.9295 30.3482 35.4682 30.0537 34.5733 30.4162C34.0748 30.6315 32.1264 32.5119 31.8319 33.0783C31.3561 34.0186 31.4694 35.1061 32.1377 35.9897L32.5229 36.4994L32.1264 37.417L31.7299 38.3459L31.1748 38.4139C30.4272 38.5158 29.8721 38.7877 29.4077 39.3088C28.8866 39.8865 28.7733 40.351 28.7733 41.9369V43.2736H25.3748C21.6139 43.2736 21.4666 43.2963 21.1155 43.9647C20.9002 44.3838 20.9795 44.9389 21.2854 45.3354L21.5006 45.5959L26.6209 45.6525L31.7299 45.7092L32.1264 46.6947L32.5342 47.6916L32.217 48.0541C31.7639 48.5979 31.6053 49.0736 31.6053 49.844C31.6053 50.7955 31.8319 51.1693 33.2139 52.5174C34.2901 53.5709 34.4373 53.6842 35.0151 53.8088C35.8534 53.99 36.6237 53.8201 37.326 53.2877C37.8245 52.9025 37.8358 52.8912 38.1983 53.0838C38.4022 53.1857 38.8213 53.3557 39.1272 53.4689L39.7049 53.6615L39.7729 54.2959C39.8635 55.1002 40.3053 55.8705 40.917 56.2783C41.3702 56.5729 41.4495 56.5842 43.194 56.6182C45.2897 56.6635 45.7428 56.5502 46.3432 55.8818C46.8077 55.3494 47.0116 54.8397 47.0116 54.2393V53.7522L48.0424 53.3104L49.0733 52.8799L49.3678 53.1631C49.9229 53.6729 50.41 53.8541 51.2143 53.8541C51.8034 53.8541 52.0526 53.7975 52.4604 53.5596C53.0495 53.2084 54.7147 51.5318 54.9752 51.0221C55.4397 50.1158 55.3038 48.9264 54.6581 48.1674L54.2729 47.7256L54.692 46.6834L55.0998 45.6525H55.6209C56.6178 45.6412 57.6147 44.9162 57.8866 43.9873C57.9659 43.7154 57.9999 42.8772 57.9772 41.7897C57.9432 40.0451 57.9432 40.0225 57.6147 39.5467C57.1842 38.935 56.4706 38.5158 55.7002 38.4365L55.0998 38.3799L54.692 37.417L54.2842 36.4541L54.6694 35.9557C55.1338 35.344 55.3264 34.6756 55.2471 33.9619C55.1678 33.3049 54.9866 32.9424 54.3862 32.2627L53.9217 31.7416V19.292C53.9217 8.75684 53.8877 6.72911 53.7518 6.06075C53.3553 4.18028 52.1998 2.60567 50.6592 1.84669L49.7983 1.41622L27.0854 1.39356C4.76899 1.37091 4.34985 1.37091 3.74945 1.58614ZM49.6963 4.07833C50.376 4.46349 50.7272 4.88263 51.169 5.83419L51.4862 6.51387L51.5202 11.4643L51.5541 16.426H26.9608H2.36742L2.40141 11.4076L2.43539 6.40059L2.76391 5.69825C3.11508 4.93927 3.82875 4.16895 4.4518 3.90841C4.75766 3.77247 8.31469 3.74981 26.9608 3.73848H49.1073L49.6963 4.07833ZM44.6327 30.8127C44.712 32.2174 44.712 32.2174 46.3885 32.7385C46.8303 32.8744 47.5553 33.1916 48.0084 33.4295C49.2319 34.0865 49.6057 34.0525 50.512 33.2256L51.2143 32.5912L52.0639 33.4295L52.9022 34.2565L52.3471 34.8342C51.3616 35.8424 51.3389 36.0803 52.0413 37.4736C52.3131 38.0287 52.653 38.8557 52.7889 39.3201C53.1627 40.5436 53.3553 40.7135 54.5788 40.7815L55.5643 40.8381L55.5983 42.0502L55.6323 43.2736H54.7487C53.378 43.2736 53.1967 43.4436 52.7209 45.0182C52.6077 45.392 52.3018 46.117 52.0299 46.6381C51.3389 47.9748 51.3616 48.2014 52.2338 49.119L52.9362 49.8326L52.1659 50.6369C51.7354 51.0674 51.3163 51.4299 51.2256 51.4299C51.135 51.4299 50.7612 51.1467 50.3987 50.8068C49.5831 50.0365 49.2432 49.9912 48.201 50.569C47.8272 50.7842 46.9776 51.1467 46.3319 51.3619C44.7686 51.8943 44.7006 51.9736 44.644 53.2537L44.61 54.2732L43.3979 54.2393L42.1971 54.2053L42.1405 53.2197C42.0725 51.9963 41.9026 51.8037 40.6905 51.4412C40.2373 51.3053 39.4217 50.9654 38.8893 50.6936C37.4959 49.9686 37.2241 49.9912 36.3178 50.8635L35.6155 51.5318L34.7998 50.7162C34.3467 50.2631 33.9842 49.844 33.9842 49.7873C33.9842 49.7307 34.2674 49.3908 34.6186 49.0397C35.4455 48.2127 35.4682 47.8842 34.7998 46.6721C34.5506 46.2076 34.2108 45.3807 34.0409 44.8369C33.6217 43.5002 33.4518 43.3529 32.1944 43.2736L31.2088 43.217V42.0275V40.8381L32.183 40.8041C33.4291 40.7588 33.633 40.6002 33.9842 39.4107C34.1202 38.9463 34.46 38.1193 34.7319 37.5756C35.4229 36.1822 35.4116 35.899 34.6073 35.0268C34.2674 34.6529 33.9842 34.3018 33.9842 34.2451C33.9842 34.1885 34.3354 33.792 34.7659 33.3729L35.5588 32.5912L36.2385 33.2256C37.2127 34.1205 37.4053 34.1432 38.81 33.4408C39.4217 33.1236 40.294 32.7611 40.7358 32.6365C41.8686 32.308 42.0725 32.0588 42.1178 30.9486C42.1405 30.4729 42.1745 30.0084 42.1971 29.9291C42.2424 29.8272 42.5483 29.7932 43.4092 29.8158L44.576 29.8498L44.6327 30.8127Z" fill="black"/>
<path d="M9.16383 6.49102C7.9404 7.01211 7.17008 7.8957 6.84157 9.16445C6.39977 10.9316 7.24938 12.7895 8.89196 13.6051C9.37907 13.843 9.61696 13.877 10.5912 13.877C11.5427 13.877 11.8146 13.8316 12.2451 13.6164C13.0834 13.2086 13.6611 12.6309 14.0689 11.8039C14.4088 11.1242 14.4427 10.9543 14.4427 10.082C14.4314 9.33438 14.3748 8.99453 14.1822 8.56406C13.797 7.71445 13.2306 7.10274 12.4377 6.68359C11.8146 6.34375 11.5994 6.29844 10.7611 6.26445C9.94547 6.23047 9.69626 6.26445 9.16383 6.49102ZM11.3388 8.86992C11.5541 9.00586 11.8146 9.32305 11.9392 9.56094C12.1998 10.1047 12.0638 10.6598 11.5541 11.1582C11.2482 11.4527 11.1123 11.498 10.5912 11.498C10.0701 11.498 9.93415 11.4527 9.63962 11.1695C9.22047 10.7617 9.03923 10.2066 9.17516 9.73086C9.29977 9.30039 9.46969 9.08516 9.91149 8.81328C10.3646 8.54141 10.8744 8.55273 11.3388 8.86992Z" fill="black"/>
<path d="M19.2578 6.42311C18.2383 6.77428 17.5473 7.40865 16.9809 8.49615C16.7543 8.92662 16.7203 9.17584 16.709 10.0821C16.709 11.3848 16.9469 11.9739 17.8418 12.8688C18.6574 13.6844 19.4504 13.9676 20.7305 13.911C21.8633 13.8544 22.5543 13.5598 23.3133 12.7895C25.7035 10.3653 23.9363 6.20787 20.5266 6.23053C20.1074 6.24186 19.541 6.32115 19.2578 6.42311ZM21.1949 8.77936C21.9313 9.16451 22.2258 10.3087 21.7387 10.9204C21.025 11.8266 19.6883 11.7133 19.2125 10.7165C18.9859 10.2407 18.9859 9.93482 19.1898 9.53834C19.6203 8.71139 20.4473 8.3942 21.1949 8.77936Z" fill="black"/>
<path d="M32.772 6.38925C31.6958 6.72909 30.7556 7.62401 30.3478 8.71151C30.0306 9.57245 30.0759 11.0224 30.4611 11.7814C30.8122 12.4724 31.5372 13.2088 32.2283 13.5713L32.7947 13.8771L38.7986 13.9111C45.4822 13.9451 45.4142 13.9564 46.4677 13.1861C47.5552 12.3818 48.1896 10.8072 47.9404 9.49315C47.6911 8.15643 46.9322 7.1369 45.7654 6.58183L45.1423 6.28729L39.1951 6.26464C34.5392 6.25331 33.1458 6.27597 32.772 6.38925ZM44.7458 8.77948C45.8333 9.33456 45.8333 10.8299 44.7458 11.3849C44.474 11.5322 43.5677 11.5549 39.0251 11.5549C33.0779 11.5549 33.1798 11.5662 32.738 10.8412C32.2962 10.1162 32.5908 9.09667 33.3384 8.77948C33.8935 8.53026 44.2701 8.53026 44.7458 8.77948Z" fill="black"/>
<path d="M41.914 35.1743C40.6679 35.4575 39.3765 36.1711 38.4589 37.1001C35.5136 40.034 35.7288 44.8032 38.9347 47.4766C39.6483 48.077 41.1097 48.7794 42.0046 48.9493C42.9675 49.1305 44.7233 49.0286 45.6636 48.7227C47.612 48.111 49.3339 46.4004 50.0362 44.4067C50.4214 43.2852 50.5233 41.518 50.2515 40.4419C49.6511 38.0629 47.8612 36.1145 45.5956 35.3895C44.4515 35.027 42.9562 34.9364 41.914 35.1743ZM44.1909 37.4965C45.6522 37.7684 46.8757 38.7086 47.544 40.0794C47.9519 40.895 47.9745 40.9969 47.9745 42.0165C47.9632 43.5458 47.6913 44.2028 46.6265 45.2676C45.5616 46.3325 44.9046 46.6044 43.3866 46.6157C42.4124 46.6157 42.2425 46.5817 41.5515 46.2532C39.6144 45.3356 38.4929 43.3079 38.844 41.3708C39.2065 39.4336 40.5319 38.0176 42.4237 37.5419C43.1487 37.3606 43.4433 37.3606 44.1909 37.4965Z" fill="black"/>
<path d="M17.6152 25.4093C17.3434 25.6358 17.1961 26.1456 16.1426 30.5862C15.4855 33.2936 14.9531 35.6839 14.9531 35.8878C14.9531 37.0093 16.8109 37.3604 17.2188 36.3183C17.2754 36.171 17.8305 33.894 18.4648 31.2546C19.6996 26.1003 19.7223 25.8624 19.2012 25.3979C18.7934 25.0581 18.023 25.0581 17.6152 25.4093Z" fill="black"/>
<path d="M10.4673 26.0434C10.1501 26.1794 7.09151 29.5212 6.67237 30.1895C6.36651 30.688 6.37784 31.5942 6.70636 32.0134C7.36339 32.8516 10.0142 35.763 10.286 35.9329C10.7845 36.2614 11.2942 36.1934 11.736 35.7516C12.1552 35.3325 12.2345 34.868 11.9853 34.4036C11.9173 34.2676 11.2489 33.486 10.5126 32.6591C9.77628 31.8434 9.17589 31.1184 9.17589 31.0618C9.17589 31.0051 9.76495 30.3028 10.49 29.4985C11.9739 27.8333 12.1892 27.4934 12.0759 26.9384C11.9513 26.236 11.113 25.7716 10.4673 26.0434Z" fill="black"/>
<path d="M23.1544 26.0431C22.7466 26.2244 22.4294 26.7228 22.4294 27.1986C22.4294 27.6631 22.3728 27.5951 24.729 30.2345C25.0802 30.6424 25.3747 31.0162 25.3747 31.0615C25.3747 31.1068 24.7743 31.8205 24.038 32.6474C23.2903 33.4744 22.6333 34.2674 22.5653 34.4033C22.0216 35.4115 23.211 36.5556 24.1966 35.9892C24.4798 35.8306 27.5837 32.3756 27.8782 31.8884C28.1274 31.5033 28.1614 30.6537 27.9462 30.2912C27.7989 30.0193 24.8989 26.7341 24.4345 26.3037C24.1286 26.0205 23.5169 25.8959 23.1544 26.0431Z" fill="black"/>
<path d="M16.607 43.4434C16.1313 43.6926 15.984 43.9531 15.9727 44.4969C15.9727 45.1992 16.4258 45.6523 17.1508 45.6523C17.8531 45.6523 18.2383 45.3125 18.3176 44.6215C18.3742 44.1684 18.3402 44.0551 18.057 43.7379C17.6605 43.2961 17.0828 43.1828 16.607 43.4434Z" fill="black"/>
</g>
<defs>
<clipPath id="clip0_28_302">
<rect width="58" height="58" fill="white"/>
</clipPath>
</defs>
</svg>
