<svg width="58" height="58" viewBox="0 0 58 58" fill="none" xmlns="http://www.w3.org/2000/svg">
<g clip-path="url(#clip0_28_280)">
<path d="M52.1996 0.260551C50.8969 0.815628 50.625 1.13282 48.8352 4.27071L47.7816 6.11719H41.9137H36.057L35.7512 6.41172C35.332 6.84219 35.332 7.65781 35.7512 8.08828L36.057 8.38282L41.2453 8.40547L46.4336 8.43946L42.4574 15.3156L38.4812 22.2031H26.1336H13.7746L13.4574 22.509C13.1969 22.7582 13.1402 22.9055 13.1402 23.3473C13.1402 23.959 13.4801 24.4008 14.0578 24.5141C14.2617 24.548 19.5066 24.582 25.7258 24.582C31.9562 24.582 37.0426 24.616 37.0426 24.6613C37.0312 24.718 36.6914 25.341 36.2723 26.0547L35.5133 27.3574L24.6383 27.3914L13.7746 27.4141L13.4574 27.7199C13.1969 27.9691 13.1402 28.1164 13.1402 28.5355C13.1516 29.0566 13.2422 29.2492 13.6387 29.5664C13.8312 29.7137 15.2133 29.7477 23.9586 29.793L34.0746 29.8496L33.4062 30.9824C33.0437 31.6055 32.7492 32.2285 32.7379 32.3645V32.625H23.2449H13.752L13.4461 32.9422C12.8004 33.6105 13.1629 34.7547 14.0578 34.9359C14.2617 34.9699 18.4645 35.0039 23.4035 35.0039C28.3539 35.0039 32.398 35.0152 32.398 35.0379C32.398 35.0492 32.3187 35.6836 32.2281 36.4199C32.1375 37.1676 32.0582 37.7906 32.0582 37.802C32.0582 37.8246 27.9348 37.8359 22.9051 37.8359H13.752L13.4461 38.1531C12.8004 38.8215 13.1629 39.9656 14.0578 40.1469C14.2617 40.1809 18.3285 40.2148 23.1203 40.2148H31.8316V40.4867C31.8316 40.6453 31.9562 40.9172 32.1035 41.0871C32.3301 41.359 32.466 41.4043 32.9305 41.4043C33.4855 41.4043 33.5309 41.3703 36.8273 38.9008L40.1578 36.3973L44.5078 28.8414C46.898 24.6953 48.8691 21.2969 48.8918 21.2969C48.9145 21.2969 48.9371 27.618 48.9371 35.3438V49.3906H28.9996H9.06211V28.8867V8.38282H18H26.9266L27.2324 8.08828C27.4703 7.85039 27.527 7.68047 27.527 7.25C27.527 6.81953 27.4703 6.64961 27.2324 6.41172L26.9266 6.11719H17.1617H7.39687L7.09102 6.41172L6.79648 6.71758V10.875V15.0438L6.43398 15.1117C5.21055 15.3383 3.51133 16.6637 2.91094 17.8418C2.23125 19.2012 2.26523 18.2383 2.26523 34.5168V49.3906H1.42695C0.679297 49.3906 0.566016 49.4246 0.294141 49.6965L-0.0117188 50.0023L0.0222656 52.2227L0.05625 54.4316L0.41875 55.202C0.894531 56.1988 1.74414 57.0484 2.775 57.5582L3.56797 57.9434H28.9996H54.4312L55.2016 57.5809C56.2098 57.1051 57.1047 56.2102 57.5805 55.202L57.943 54.4316L57.977 52.2227L58.0109 50.0023L57.7051 49.6965C57.4332 49.4246 57.3199 49.3906 56.5723 49.3906H55.734V34.5168C55.734 18.2383 55.768 19.2012 55.0883 17.8418C54.7258 17.1395 53.5703 15.9727 52.902 15.6328C52.6187 15.4969 52.3695 15.3609 52.3469 15.3383C52.3355 15.327 53.5023 13.2539 54.9523 10.7391C56.4023 8.22422 57.6824 5.92461 57.807 5.60743C58.1242 4.76914 58.0449 3.22852 57.6371 2.35625C57.2519 1.5293 56.4703 0.747658 55.6434 0.362503C55.1109 0.113285 54.8051 0.0566444 53.9215 0.0226593C53.0039 3.8147e-06 52.7547 0.033989 52.1996 0.260551ZM54.8391 2.65078C55.3715 3.02461 55.5641 3.4211 55.5641 4.19141C55.5641 4.84844 55.5074 5.00703 55.1223 5.66407C54.873 6.07188 54.6691 6.41172 54.6578 6.43438C54.6352 6.45704 53.9102 6.04922 53.0266 5.55079L51.4293 4.62188L51.8031 3.94219C52.2789 3.04727 52.7773 2.54883 53.3211 2.4129C53.7855 2.29961 54.4992 2.4129 54.8391 2.65078ZM52.177 7.83907L53.4344 8.55274L46.2297 21.025C42.2648 27.8785 38.9457 33.5992 38.8551 33.7352C38.6852 33.9617 38.6625 33.9617 37.1559 33.0895C36.3176 32.6023 35.6266 32.1492 35.6266 32.0926C35.6266 32.0246 38.9117 26.2926 42.9219 19.3371L50.2285 6.69492L50.5684 6.91016C50.7609 7.02344 51.4859 7.44258 52.177 7.83907ZM6.79648 33.4746V49.3906H5.66367H4.51953L4.55352 34.6867C4.5875 18.7707 4.55352 19.7449 5.19922 18.7594C5.49375 18.3063 6.4 17.5699 6.66055 17.5586C6.7625 17.5586 6.79648 20.8211 6.79648 33.4746ZM51.9617 17.8871C52.5395 18.3063 52.9473 18.8387 53.2078 19.4957C53.4004 19.9602 53.4117 20.9344 53.4457 34.6867L53.4797 49.3906H52.3355H51.2027V33.4746C51.2027 20.1867 51.2254 17.5586 51.35 17.5586C51.4406 17.5586 51.7125 17.7059 51.9617 17.8871ZM36.3969 35.423C36.6914 35.5816 36.9293 35.7516 36.9293 35.7855C36.918 35.9102 34.6523 37.5188 34.5844 37.4508C34.5164 37.3828 34.743 35.1285 34.8449 34.7434C34.9016 34.5621 34.9469 34.5734 35.3773 34.834C35.6379 34.9926 36.091 35.2531 36.3969 35.423ZM55.6887 52.6984C55.5867 54.2391 55.1336 54.998 54.0348 55.4965C53.6723 55.6664 51.3387 55.6777 28.9996 55.6777H4.36094L3.82852 55.4172C2.79766 54.9074 2.4125 54.2051 2.29922 52.6758L2.23125 51.6563H28.9996H55.768L55.6887 52.6984Z" fill="black"/>
<path d="M30.6539 6.41172C30.416 6.64961 30.3594 6.81953 30.3594 7.25C30.3594 7.68047 30.416 7.85039 30.6539 8.08828C30.8918 8.32617 31.0617 8.38281 31.4922 8.38281C31.9227 8.38281 32.0926 8.32617 32.3305 8.08828C32.5684 7.85039 32.625 7.68047 32.625 7.25C32.625 6.81953 32.5684 6.64961 32.3305 6.41172C32.0926 6.17383 31.9227 6.11719 31.4922 6.11719C31.0617 6.11719 30.8918 6.17383 30.6539 6.41172Z" fill="black"/>
<path d="M13.4352 12.7555L13.1406 13.0613V15.8594V18.6574L13.4352 18.9633L13.741 19.2578H22.8828H32.0246L32.3305 18.9633L32.625 18.6574V15.8594V13.0613L32.3305 12.7555L32.0246 12.4609H22.8828H13.741L13.4352 12.7555ZM30.3594 15.8594V16.9922H22.8828H15.4062V15.8594V14.7266H22.8828H30.3594V15.8594Z" fill="black"/>
<path d="M13.446 43.3644C12.8003 44.0328 13.1628 45.1769 14.0578 45.3582C14.7488 45.4941 25.182 45.4261 25.6011 45.2789C26.4054 44.9957 26.6206 43.9421 25.9976 43.3191L25.7257 43.0472H19.7331H13.7519L13.446 43.3644Z" fill="black"/>
</g>
<defs>
<clipPath id="clip0_28_280">
<rect width="58" height="58" fill="white"/>
</clipPath>
</defs>
</svg>
