<svg width="58" height="58" viewBox="0 0 58 58" fill="none" xmlns="http://www.w3.org/2000/svg">
<path d="M22.8262 1.20078C16.9016 1.84649 12.0418 6.33242 11.0449 12.0984C10.7957 13.4918 10.7957 22.7582 11.0449 24.1516C11.702 27.9125 14.1828 31.4469 17.4793 33.3047L18.125 33.6672V35.6836V37.6887L13.4578 39.0254C10.8863 39.7504 8.39414 40.498 7.92969 40.6906C5.47148 41.6535 3.38711 43.6359 2.20898 46.1281C1.35938 47.918 1.20078 48.8016 1.18945 51.6563C1.18945 53.9219 1.21211 54.1258 1.43867 54.6242C1.77852 55.3719 2.52617 56.1309 3.27383 56.4934L3.9082 56.8105H26.5645H49.2207L49.8664 56.5047C50.6141 56.1535 51.3164 55.4738 51.6789 54.7375C51.8828 54.307 51.9395 53.9672 51.9734 53.0043L52.0188 51.7922L52.4719 51.5883C53.0723 51.3164 53.9672 50.3195 54.1938 49.6625C54.477 48.8355 54.4316 47.5328 54.1031 46.8305C53.7406 46.0602 53.1516 45.4258 52.5059 45.0973L51.9734 44.8254L52.0301 43.1715C52.098 41.0191 52.2113 40.702 53.3555 39.4785C54.9867 37.7566 55.7797 36.4879 56.3461 34.698C57.6035 30.6879 56.4254 26.2586 53.3215 23.3813C51.1578 21.3762 48.4504 20.402 45.4258 20.5379C42.3105 20.6852 39.7957 21.8746 37.6773 24.2309C37.3828 24.5594 37.1562 24.7406 37.2016 24.6273C37.4168 23.9137 37.4961 22.2938 37.4961 18.057C37.4961 14.3301 37.4621 13.0727 37.3262 12.3137C36.3633 6.77422 32.2738 2.5375 26.791 1.41602C25.8848 1.23477 23.6758 1.11016 22.8262 1.20078ZM25.998 3.86289C29.725 4.45195 32.9875 7.19336 34.3355 10.8863C34.8113 12.2004 35.0039 13.6391 35.0039 16.0406V18.091L34.698 18.0344C34.4828 18.0004 33.8371 17.4453 32.7949 16.4371C30.8125 14.5113 30.4953 14.3301 29 14.3301C27.652 14.3301 27.2895 14.5 25.8848 15.7574C25.1484 16.4145 24.582 16.8109 23.8457 17.1621C22.1578 17.9891 21.8859 18.0344 17.366 18.091L13.3672 18.1477V15.7914C13.3672 13.1406 13.5258 12.0305 14.1262 10.5352C16.052 5.74336 20.8324 3.0586 25.998 3.86289ZM30.9938 18.3629C32.7609 20.0734 33.316 20.4359 34.4035 20.5719L35.0039 20.6398V21.4555C35.0039 26.8363 31.4582 31.2316 26.2246 32.3531C25.1598 32.5797 23.166 32.5684 22.0332 32.3418C17.0035 31.2996 13.3785 26.859 13.3672 21.7273V20.6398L17.5926 20.5832C21.4441 20.5379 21.8859 20.5152 22.7469 20.3C24.65 19.8016 26.032 19.0426 27.7313 17.5813C29.068 16.4145 28.9887 16.4031 30.9938 18.3629ZM47.3629 23.1547C49.0961 23.4605 50.4895 24.2195 51.8262 25.5449C53.4234 27.1422 54.1371 28.7508 54.2391 31.0164C54.3523 33.6672 53.616 35.4684 51.509 37.7C49.9117 39.3766 49.5039 40.4754 49.5039 43.1262V44.6328H48.3145H47.125V39.5691V34.5168L48.3031 33.3047C49.2434 32.3418 49.5039 32.002 49.5719 31.6621C49.7305 30.7672 48.9828 30.0082 48.0879 30.1781C47.782 30.2348 47.4422 30.484 46.7738 31.1184L45.8789 31.9793L44.9953 31.1184C44.5082 30.6426 43.9758 30.2234 43.8059 30.1895C43.0695 29.9969 42.2539 30.5973 42.2539 31.3223C42.2539 31.9113 42.4578 32.2285 43.602 33.3613L44.6328 34.3809V39.5012V44.6328H43.5113H42.3898L42.3445 42.7863C42.2652 40.1695 41.948 39.3539 40.3395 37.666C39.7957 37.0996 39.1953 36.4086 39.0027 36.1254C36.7598 32.8516 37.1109 28.5582 39.8637 25.6695C41.8574 23.5852 44.5988 22.6676 47.3629 23.1547ZM35.0379 30.8918C34.902 34.2563 35.8875 36.7371 38.391 39.3539C38.9234 39.909 39.1613 40.2262 39.0254 40.1922C38.9008 40.1582 36.873 39.5805 34.5281 38.9121L30.2461 37.6887V35.6836V33.6785L31.1863 33.1008C31.6961 32.7836 32.4438 32.2512 32.8516 31.9C33.5539 31.2996 35.0039 29.7137 35.0039 29.5324C35.0039 29.4871 35.0266 29.4531 35.0492 29.4531C35.0719 29.4531 35.0605 30.0988 35.0379 30.8918ZM21.6367 34.8566C22.2258 34.9813 23.0188 35.0379 24.1855 35.0379C25.3523 35.0379 26.1453 34.9813 26.7344 34.8566C27.1988 34.7547 27.618 34.6641 27.6746 34.6641C27.7199 34.6641 27.7539 35.3777 27.7539 36.25V37.8359L26.0547 38.6855C25.1258 39.15 24.2648 39.5352 24.1629 39.5352C24.0496 39.5352 23.2113 39.1727 22.2938 38.7195L20.6172 37.9039V36.284C20.6172 35.3891 20.6512 34.6641 20.7078 34.6641C20.7531 34.6641 21.1723 34.7547 21.6367 34.8566ZM20.1641 40.668C20.1641 40.7699 19.7336 43.8738 19.2012 47.5781C18.6688 51.2824 18.2383 54.3184 18.2383 54.341C18.2383 54.3637 15.2477 54.375 11.5887 54.3637C6.72891 54.3637 4.82578 54.3297 4.54258 54.2277C4.32734 54.1484 4.04414 53.9445 3.91953 53.7746C3.69297 53.4688 3.68164 53.3215 3.7043 51.509C3.71563 49.7758 3.76094 49.4473 4.02148 48.541C4.70117 46.1734 6.40039 44.191 8.56406 43.1941C8.93789 43.0242 11.4754 42.2426 14.2168 41.4609L19.2012 40.0336L19.6883 40.2602C19.9488 40.3848 20.1641 40.566 20.1641 40.668ZM39.3426 43.0016L39.875 43.2055V44.0098V44.8027L39.3652 45.0746C38.7195 45.4145 37.9945 46.1961 37.6887 46.8758C37.3262 47.6914 37.3488 49.0168 37.734 49.8551C38.0965 50.6141 38.7535 51.3051 39.3992 51.6109L39.8637 51.8262L39.875 52.925C39.875 53.5254 39.909 54.0918 39.943 54.1938C40.0109 54.3523 39.5352 54.375 35.0719 54.375C32.3531 54.375 30.1328 54.3637 30.1215 54.341C30.1215 54.3297 29.6684 51.2145 29.1246 47.4309L28.1277 40.5434L28.6375 40.2828L29.1359 40.0223L33.973 41.4156C36.6238 42.1746 39.0367 42.8883 39.3426 43.0016ZM24.3555 41.982C24.8199 41.9594 25.3297 41.9141 25.4883 41.8914L25.7602 41.8574L26.6438 47.9746C27.1195 51.3391 27.516 54.1598 27.5273 54.2277C27.5273 54.341 26.791 54.375 24.1855 54.375C21.5914 54.375 20.8438 54.341 20.8438 54.2277C20.8438 54.1598 21.2289 51.3051 21.716 47.9066L22.5883 41.7328L23.0527 41.8914C23.3586 41.9934 23.7777 42.0273 24.3555 41.982ZM50.9992 47.2383C51.8828 47.4875 52.1547 48.4051 51.5543 49.0734L51.2258 49.4473L46.2527 49.4813C43.5227 49.5039 41.1324 49.4813 40.9398 49.4473C40.7359 49.4133 40.4414 49.2547 40.2828 49.0848C39.7051 48.5184 40.0109 47.4875 40.8152 47.2496C41.325 47.1023 50.4668 47.091 50.9992 47.2383ZM49.5039 52.6305C49.5039 52.9816 49.4246 53.4234 49.334 53.6273C49.0168 54.2844 48.8809 54.3184 46.332 54.3523C43.534 54.3977 43.1148 54.3523 42.6844 53.9219C42.4012 53.6273 42.3672 53.5254 42.3672 52.8004V51.9961H45.9355H49.5039V52.6305Z" fill="black"/>
</svg>
