<?xml version="1.0" encoding="UTF-8"?>
<!DOCTYPE svg PUBLIC "-//W3C//DTD SVG 1.1//EN" "http://www.w3.org/Graphics/SVG/1.1/DTD/svg11.dtd">
<svg xmlns="http://www.w3.org/2000/svg" version="1.1" width="590px" height="168px" style="shape-rendering:geometricPrecision; text-rendering:geometricPrecision; image-rendering:optimizeQuality; fill-rule:evenodd; clip-rule:evenodd" xmlns:xlink="http://www.w3.org/1999/xlink">
<g><path style="opacity:1" fill="#fbfbfb" d="M -0.5,-0.5 C 196.167,-0.5 392.833,-0.5 589.5,-0.5C 589.5,55.5 589.5,111.5 589.5,167.5C 392.833,167.5 196.167,167.5 -0.5,167.5C -0.5,111.5 -0.5,55.5 -0.5,-0.5 Z"/></g>
<g><path style="opacity:1" fill="#2f2f2f" d="M 126.5,2.5 C 126.5,2.83333 126.5,3.16667 126.5,3.5C 85.5,3.5 44.5,3.5 3.5,3.5C 3.26269,4.79105 3.59603,5.79105 4.5,6.5C 4.5,7.16667 4.83333,7.5 5.5,7.5C 5.82962,23.3422 5.49628,39.0089 4.5,54.5C 5.1464,41.788 4.47974,29.4547 2.5,17.5C 2.5,12.5 2.5,7.5 2.5,2.5C 43.8333,2.5 85.1667,2.5 126.5,2.5 Z"/></g>
<g><path style="opacity:1" fill="#434343" d="M 126.5,3.5 C 126.5,3.16667 126.5,2.83333 126.5,2.5C 279.5,2.5 432.5,2.5 585.5,2.5C 585.832,56.0026 585.499,109.336 584.5,162.5C 584.5,109.5 584.5,56.5 584.5,3.5C 431.833,3.5 279.167,3.5 126.5,3.5 Z"/></g>
<g><path style="opacity:1" fill="#1e1e1e" d="M 126.5,3.5 C 279.167,3.5 431.833,3.5 584.5,3.5C 584.5,56.5 584.5,109.5 584.5,162.5C 570.667,163.347 556.667,163.347 542.5,162.5C 540.167,162.5 537.833,162.5 535.5,162.5C 536.167,161.833 536.833,161.167 537.5,160.5C 552.428,160.643 567.261,159.977 582,158.5C 582.832,107.998 582.665,57.665 581.5,7.5C 581.167,6.83333 580.833,6.16667 580.5,5.5C 487.028,4.82977 391.528,4.49644 294,4.5C 197.164,4.50001 100.664,5.16668 4.5,6.5C 3.59603,5.79105 3.26269,4.79105 3.5,3.5C 44.5,3.5 85.5,3.5 126.5,3.5 Z"/></g>
<g><path style="opacity:1" fill="#000000" d="M 580.5,5.5 C 388.497,4.8345 196.83,5.50117 5.5,7.5C 4.83333,7.5 4.5,7.16667 4.5,6.5C 100.664,5.16668 197.164,4.50001 294,4.5C 391.528,4.49644 487.028,4.82977 580.5,5.5 Z"/></g>
<g><path style="opacity:1" fill="#494949" d="M 580.5,5.5 C 580.833,6.16667 581.167,6.83333 581.5,7.5C 581.167,7.5 580.833,7.5 580.5,7.5C 389.167,7.5 197.833,7.5 6.5,7.5C 6.16667,7.5 5.83333,7.5 5.5,7.5C 196.83,5.50117 388.497,4.8345 580.5,5.5 Z"/></g>
<g><path style="opacity:1" fill="#fdfdfd" d="M 6.5,7.5 C 197.833,7.5 389.167,7.5 580.5,7.5C 580.5,57.8333 580.5,108.167 580.5,158.5C 389.167,158.5 197.833,158.5 6.5,158.5C 6.5,108.167 6.5,57.8333 6.5,7.5 Z"/></g>
<g><path style="opacity:1" fill="#1a1a1a" d="M 19.5,17.5 C 110.5,17.5 201.5,17.5 292.5,17.5C 292.5,18.1667 292.5,18.8333 292.5,19.5C 201.5,19.5 110.5,19.5 19.5,19.5C 19.5,18.8333 19.5,18.1667 19.5,17.5 Z"/></g>
<g><path style="opacity:1" fill="#020202" d="M 19.5,19.5 C 110.5,19.5 201.5,19.5 292.5,19.5C 292.5,62.5 292.5,105.5 292.5,148.5C 201.5,148.5 110.5,148.5 19.5,148.5C 18.1703,105.402 18.1703,62.4023 19.5,19.5 Z"/></g>
<g><path style="opacity:1" fill="#505050" d="M 19.5,17.5 C 19.5,18.1667 19.5,18.8333 19.5,19.5C 18.1703,62.4023 18.1703,105.402 19.5,148.5C 18.1669,127.01 17.5003,105.177 17.5,83C 17.5003,60.823 18.1669,38.9896 19.5,17.5 Z"/></g>
<g><path style="opacity:1" fill="#5f5f5f" d="M 173.5,58.5 C 169.434,58.307 165.434,58.6403 161.5,59.5C 163.048,58.2057 165.048,57.5391 167.5,57.5C 169.696,57.5046 171.696,57.838 173.5,58.5 Z"/></g>
<g><path style="opacity:1" fill="#5e5e5e" d="M 219.5,59.5 C 214.858,58.3274 210.191,58.3274 205.5,59.5C 205.611,58.8826 205.944,58.3826 206.5,58C 210.5,57.3333 214.5,57.3333 218.5,58C 219.056,58.3826 219.389,58.8826 219.5,59.5 Z"/></g>
<g><path style="opacity:1" fill="#b3b3b3" d="M 381.5,59.5 C 378.167,59.5 374.833,59.5 371.5,59.5C 372.694,58.2227 374.36,57.5561 376.5,57.5C 378.64,57.5561 380.306,58.2227 381.5,59.5 Z"/></g>
<g><path style="opacity:1" fill="#a5a5a5" d="M 512.5,59.5 C 509.167,59.5 505.833,59.5 502.5,59.5C 502.611,58.8826 502.944,58.3826 503.5,58C 505,57.8333 506.5,57.6667 508,57.5C 509.986,57.5687 511.486,58.2353 512.5,59.5 Z"/></g>
<g><path style="opacity:1" fill="#4a4a4a" d="M 115.5,61.5 C 114.082,59.6921 112.082,59.0254 109.5,59.5C 109.97,58.3065 110.97,57.6399 112.5,57.5C 116.05,57.3497 117.05,58.683 115.5,61.5 Z"/></g>
<g><path style="opacity:1" fill="#5c5c5c" d="M 136.5,59.5 C 134.833,59.5 133.167,59.5 131.5,59.5C 131.791,58.3509 132.624,57.6842 134,57.5C 135.376,57.6842 136.209,58.3509 136.5,59.5 Z"/></g>
<g><path style="opacity:1" fill="#ebebeb" d="M 173.5,58.5 C 176.882,59.8657 179.882,61.8657 182.5,64.5C 183.265,67.0961 183.599,69.7628 183.5,72.5C 181.833,72.5 180.167,72.5 178.5,72.5C 178.167,70.5 177.833,68.5 177.5,66.5C 174.248,65.6234 170.915,64.9567 167.5,64.5C 164.378,64.851 161.378,65.5176 158.5,66.5C 157.456,72.4169 159.789,75.7502 165.5,76.5C 168.997,78.9017 172.997,80.5683 177.5,81.5C 184.702,84.0171 187.035,89.0171 184.5,96.5C 182.167,98.1667 180.167,100.167 178.5,102.5C 176.955,103.452 175.288,103.785 173.5,103.5C 170.167,103.5 166.833,103.5 163.5,103.5C 158.755,103.132 155.422,100.798 153.5,96.5C 152.85,94.5648 152.517,92.5648 152.5,90.5C 154.565,90.5172 156.565,90.8505 158.5,91.5C 159.502,93.0109 160.169,94.6776 160.5,96.5C 166.578,99.4958 172.412,99.1624 178,95.5C 178.497,93.1902 178.663,90.8568 178.5,88.5C 176.678,88.1692 175.011,87.5025 173.5,86.5C 171.718,84.643 169.385,83.643 166.5,83.5C 162.174,82.7378 158.174,81.0711 154.5,78.5C 153.571,77.3112 153.238,75.9778 153.5,74.5C 152.612,71.9455 152.279,69.2788 152.5,66.5C 154.088,62.5918 157.088,60.2585 161.5,59.5C 165.434,58.6403 169.434,58.307 173.5,58.5 Z"/></g>
<g><path style="opacity:1" fill="#e8e8e8" d="M 219.5,59.5 C 223.912,60.2585 226.912,62.5918 228.5,66.5C 228.5,68.5 228.5,70.5 228.5,72.5C 226.708,72.634 225.042,72.3007 223.5,71.5C 222.962,69.8828 222.629,68.2161 222.5,66.5C 219.408,65.664 216.241,64.9973 213,64.5C 210.319,64.7694 207.819,65.4361 205.5,66.5C 204.275,67.1522 203.608,68.3189 203.5,70C 203.608,71.6811 204.275,72.8478 205.5,73.5C 209.409,77.4388 214.242,79.4388 220,79.5C 222.514,80.4007 224.68,81.7341 226.5,83.5C 227.136,85.7946 228.469,87.4613 230.5,88.5C 231.485,96.4956 228.152,101.496 220.5,103.5C 216.5,103.5 212.5,103.5 208.5,103.5C 204.086,102.601 200.753,100.268 198.5,96.5C 197.659,94.6208 197.325,92.6208 197.5,90.5C 199.167,90.5 200.833,90.5 202.5,90.5C 203.971,92.2156 204.971,94.2156 205.5,96.5C 206.5,96.5 207.5,96.5 208.5,96.5C 210.048,97.7943 212.048,98.4609 214.5,98.5C 216.952,98.4609 218.952,97.7943 220.5,96.5C 221.75,96.4226 222.583,95.756 223,94.5C 223.711,92.1009 223.544,89.7676 222.5,87.5C 216.09,85.3634 209.756,83.03 203.5,80.5C 197.146,75.7338 195.813,69.7338 199.5,62.5C 201.626,61.6299 203.626,60.6299 205.5,59.5C 210.191,58.3274 214.858,58.3274 219.5,59.5 Z"/></g>
<g><path style="opacity:1" fill="#ebebeb" d="M 83.5,59.5 C 85.5,59.5 87.5,59.5 89.5,59.5C 89.5,65.8333 89.5,72.1667 89.5,78.5C 92.8499,78.665 96.1832,78.4983 99.5,78C 100.056,77.6174 100.389,77.1174 100.5,76.5C 102.179,76.7148 103.179,76.0481 103.5,74.5C 105.408,73.5144 106.408,71.8477 106.5,69.5C 106.947,65.9978 107.947,62.6644 109.5,59.5C 112.082,59.0254 114.082,59.6921 115.5,61.5C 113.174,68.5397 110.174,75.373 106.5,82C 110.723,88.7182 114.723,95.5515 118.5,102.5C 115.572,103.484 112.572,103.817 109.5,103.5C 109.301,101.04 108.635,98.7067 107.5,96.5C 105.002,92.226 102.335,88.226 99.5,84.5C 96.3752,83.5206 93.0419,83.1872 89.5,83.5C 89.5,90.1667 89.5,96.8333 89.5,103.5C 87.5,103.5 85.5,103.5 83.5,103.5C 83.5,88.8333 83.5,74.1667 83.5,59.5 Z"/></g>
<g><path style="opacity:1" fill="#f7f7f7" d="M 131.5,59.5 C 133.167,59.5 134.833,59.5 136.5,59.5C 136.5,74.1667 136.5,88.8333 136.5,103.5C 134.833,103.5 133.167,103.5 131.5,103.5C 131.5,88.8333 131.5,74.1667 131.5,59.5 Z"/></g>
<g><path style="opacity:1" fill="#111111" d="M 347.5,96.5 C 347.5,97.8333 347.5,99.1667 347.5,100.5C 343.833,100.5 340.167,100.5 336.5,100.5C 336.773,98.549 336.107,97.049 334.5,96C 329.511,95.5007 324.511,95.3341 319.5,95.5C 318.833,97.5 318.167,99.5 317.5,101.5C 313.833,101.5 310.167,101.5 306.5,101.5C 306.507,98.9621 306.841,96.4621 307.5,94C 311.81,83.2152 315.976,72.3819 320,61.5C 321.87,60.2565 324.036,59.5899 326.5,59.5C 329.043,59.6397 331.377,60.3063 333.5,61.5C 337.434,73.5771 342.1,85.2438 347.5,96.5 Z"/></g>
<g><path style="opacity:1" fill="#0c0c0c" d="M 371.5,59.5 C 374.833,59.5 378.167,59.5 381.5,59.5C 386.557,60.6876 390.557,63.3543 393.5,67.5C 394.038,69.1172 394.371,70.7839 394.5,72.5C 390.833,72.5 387.167,72.5 383.5,72.5C 381.374,70.4534 378.708,69.4534 375.5,69.5C 368.162,69.3202 364.496,72.8202 364.5,80C 364.922,83.5863 365.589,87.0863 366.5,90.5C 371.129,91.481 375.796,91.6477 380.5,91C 381.066,90.0053 381.733,89.172 382.5,88.5C 383.391,87.7387 384.058,86.7387 384.5,85.5C 380.893,84.5108 377.226,84.1774 373.5,84.5C 373.5,82.5 373.5,80.5 373.5,78.5C 381.167,78.5 388.833,78.5 396.5,78.5C 396.5,81.1667 396.5,83.8333 396.5,86.5C 393.669,89.5004 391.335,92.8338 389.5,96.5C 387.3,98.6404 384.633,100.14 381.5,101C 373.64,102.496 366.307,101.329 359.5,97.5C 356.845,94.1851 354.845,90.5184 353.5,86.5C 353.274,81.4376 353.608,76.4376 354.5,71.5C 357.157,63.331 362.823,59.331 371.5,59.5 Z"/></g>
<g><path style="opacity:1" fill="#090909" d="M 405.5,59.5 C 414.167,59.5 422.833,59.5 431.5,59.5C 431.5,62.1667 431.5,64.8333 431.5,67.5C 426.156,67.334 420.823,67.5006 415.5,68C 414.189,70.2735 414.189,72.4402 415.5,74.5C 420.056,76.4417 425.056,77.1083 430.5,76.5C 430.5,79.1667 430.5,81.8333 430.5,84.5C 425.167,84.5 419.833,84.5 414.5,84.5C 414.198,87.0593 414.532,89.3926 415.5,91.5C 420.64,92.4881 425.974,92.8214 431.5,92.5C 431.5,95.1667 431.5,97.8333 431.5,100.5C 422.582,100.817 413.749,100.484 405,99.5C 404.203,86.1215 404.37,72.7882 405.5,59.5 Z"/></g>
<g><path style="opacity:1" fill="#0a0a0a" d="M 441.5,59.5 C 445.509,59.0389 449.176,59.8722 452.5,62C 455.972,67.3056 459.639,72.4722 463.5,77.5C 464.328,78.4147 465.328,79.0814 466.5,79.5C 467.497,72.8665 467.83,66.1998 467.5,59.5C 470.833,59.5 474.167,59.5 477.5,59.5C 477.5,73.1667 477.5,86.8333 477.5,100.5C 474.5,100.5 471.5,100.5 468.5,100.5C 464.529,94.8544 460.529,89.1878 456.5,83.5C 455.476,82.1468 454.143,81.4802 452.5,81.5C 451.51,87.6446 451.177,93.9779 451.5,100.5C 448.223,100.784 445.057,100.451 442,99.5C 441.5,86.1708 441.333,72.8375 441.5,59.5 Z"/></g>
<g><path style="opacity:1" fill="#0c0c0c" d="M 502.5,59.5 C 505.833,59.5 509.167,59.5 512.5,59.5C 516.402,60.5952 520.069,62.2618 523.5,64.5C 525.31,66.6234 526.643,68.9567 527.5,71.5C 527.414,72.4959 527.748,73.3292 528.5,74C 524.113,74.7062 519.78,74.5396 515.5,73.5C 513.729,70.7105 511.062,69.3771 507.5,69.5C 501.054,70.281 497.721,73.9476 497.5,80.5C 498.055,84.0207 499.055,87.354 500.5,90.5C 507.155,92.653 512.822,91.3196 517.5,86.5C 521.099,85.6561 524.766,85.3227 528.5,85.5C 528.5,86.5 528.5,87.5 528.5,88.5C 527.837,90.0419 527.17,91.7086 526.5,93.5C 524.272,95.0375 522.272,96.7041 520.5,98.5C 512.961,101.973 505.295,102.306 497.5,99.5C 492.5,97.8333 489.167,94.5 487.5,89.5C 487.5,83.5 487.5,77.5 487.5,71.5C 488.934,68.9528 490.6,66.6195 492.5,64.5C 493.71,64.0679 494.71,63.4013 495.5,62.5C 497.604,61.0883 499.937,60.0883 502.5,59.5 Z"/></g>
<g><path style="opacity:1" fill="#0c0c0c" d="M 547.5,64.5 C 547.909,68.3295 549.576,71.3295 552.5,73.5C 554.433,72.3583 555.933,70.6917 557,68.5C 557.909,65.7202 559.075,63.0536 560.5,60.5C 564.445,59.5091 568.445,59.1758 572.5,59.5C 569.486,68.5288 565.152,76.8622 559.5,84.5C 558.513,89.3196 557.847,94.3196 557.5,99.5C 554.167,99.5 550.833,99.5 547.5,99.5C 547.827,94.456 547.494,89.456 546.5,84.5C 542.45,78.2355 538.783,71.7355 535.5,65C 534.767,63.2341 534.433,61.4008 534.5,59.5C 538.226,59.1774 541.893,59.5108 545.5,60.5C 546.853,61.5237 547.52,62.857 547.5,64.5 Z"/></g>
<g><path style="opacity:1" fill="#7d7d7d" d="M 495.5,62.5 C 494.71,63.4013 493.71,64.0679 492.5,64.5C 492.821,62.9519 493.821,62.2852 495.5,62.5 Z"/></g>
<g><path style="opacity:1" fill="#414141" d="M 100.5,76.5 C 100.389,77.1174 100.056,77.6174 99.5,78C 96.1832,78.4983 92.8499,78.665 89.5,78.5C 89.5,72.1667 89.5,65.8333 89.5,59.5C 87.5,59.5 85.5,59.5 83.5,59.5C 83.6107,58.8826 83.944,58.3826 84.5,58C 86.4727,57.5045 88.4727,57.3379 90.5,57.5C 90.3338,63.8421 90.5005,70.1754 91,76.5C 94.1311,77.7003 97.2977,77.7003 100.5,76.5 Z"/></g>
<g><path style="opacity:1" fill="#575757" d="M 431.5,67.5 C 426.5,68.1667 421.5,68.8333 416.5,69.5C 415.549,70.9187 415.216,72.5853 415.5,74.5C 414.189,72.4402 414.189,70.2735 415.5,68C 420.823,67.5006 426.156,67.334 431.5,67.5 Z"/></g>
<g><path style="opacity:1" fill="#7f7f7f" d="M 152.5,66.5 C 152.279,69.2788 152.612,71.9455 153.5,74.5C 152.252,73.6661 151.585,72.3328 151.5,70.5C 151.511,68.9549 151.844,67.6216 152.5,66.5 Z"/></g>
<g><path style="opacity:1" fill="#a7a7a7" d="M 431.5,59.5 C 432.765,60.5145 433.431,62.0145 433.5,64C 433.456,65.7642 433.122,67.4309 432.5,69C 427.177,69.4994 421.844,69.666 416.5,69.5C 421.5,68.8333 426.5,68.1667 431.5,67.5C 431.5,64.8333 431.5,62.1667 431.5,59.5 Z"/></g>
<g><path style="opacity:1" fill="#5d5d5d" d="M 205.5,66.5 C 204.314,68.8744 204.314,71.2078 205.5,73.5C 204.275,72.8478 203.608,71.6811 203.5,70C 203.608,68.3189 204.275,67.1522 205.5,66.5 Z"/></g>
<g><path style="opacity:1" fill="#444444" d="M 547.5,64.5 C 549.457,67.1775 551.123,70.1775 552.5,73.5C 549.576,71.3295 547.909,68.3295 547.5,64.5 Z"/></g>
<g><path style="opacity:1" fill="#909090" d="M 2.5,17.5 C 4.47974,29.4547 5.1464,41.788 4.5,54.5C 4.61845,77.6821 3.95178,100.682 2.5,123.5C 2.5,88.1667 2.5,52.8333 2.5,17.5 Z"/></g>
<g><path style="opacity:1" fill="#494949" d="M 182.5,64.5 C 184.388,66.9878 185.055,69.9878 184.5,73.5C 182.265,73.7947 180.265,73.4614 178.5,72.5C 180.167,72.5 181.833,72.5 183.5,72.5C 183.599,69.7628 183.265,67.0961 182.5,64.5 Z"/></g>
<g><path style="opacity:1" fill="#727272" d="M 228.5,66.5 C 229.468,68.6074 229.802,70.9407 229.5,73.5C 226.918,73.9746 224.918,73.3079 223.5,71.5C 225.042,72.3007 226.708,72.634 228.5,72.5C 228.5,70.5 228.5,68.5 228.5,66.5 Z"/></g>
<g><path style="opacity:1" fill="#7a7a7a" d="M 393.5,67.5 C 395.308,68.9179 395.975,70.9179 395.5,73.5C 391.298,73.8168 387.298,73.4834 383.5,72.5C 387.167,72.5 390.833,72.5 394.5,72.5C 394.371,70.7839 394.038,69.1172 393.5,67.5 Z"/></g>
<g><path style="opacity:1" fill="#959595" d="M 106.5,69.5 C 106.408,71.8477 105.408,73.5144 103.5,74.5C 103.777,72.2719 104.777,70.6053 106.5,69.5 Z"/></g>
<g><path style="opacity:1" fill="#454545" d="M 405.5,59.5 C 404.37,72.7882 404.203,86.1215 405,99.5C 413.749,100.484 422.582,100.817 431.5,100.5C 431.5,97.8333 431.5,95.1667 431.5,92.5C 425.974,92.8214 420.64,92.4881 415.5,91.5C 421.5,91.5 427.5,91.5 433.5,91.5C 433.5,94.8333 433.5,98.1667 433.5,101.5C 423.5,101.5 413.5,101.5 403.5,101.5C 402.851,87.1267 403.518,73.1267 405.5,59.5 Z"/></g>
<g><path style="opacity:1" fill="#7f7f7f" d="M 415.5,74.5 C 420.944,73.8917 425.944,74.5583 430.5,76.5C 425.056,77.1083 420.056,76.4417 415.5,74.5 Z"/></g>
<g><path style="opacity:1" fill="#939393" d="M 527.5,71.5 C 529.256,72.5521 529.923,74.2188 529.5,76.5C 525.154,76.6657 520.821,76.499 516.5,76C 515.748,75.3292 515.414,74.4959 515.5,73.5C 519.78,74.5396 524.113,74.7062 528.5,74C 527.748,73.3292 527.414,72.4959 527.5,71.5 Z"/></g>
<g><path style="opacity:1" fill="#eaeaea" d="M 331.5,86.5 C 328.833,86.5 326.167,86.5 323.5,86.5C 323.629,84.7839 323.962,83.1172 324.5,81.5C 324.162,78.8431 324.829,76.5098 326.5,74.5C 329.421,77.9696 331.088,81.9696 331.5,86.5 Z"/></g>
<g><path style="opacity:1" fill="#888888" d="M 396.5,78.5 C 388.833,78.5 381.167,78.5 373.5,78.5C 373.5,80.5 373.5,82.5 373.5,84.5C 377.226,84.1774 380.893,84.5108 384.5,85.5C 384.058,86.7387 383.391,87.7387 382.5,88.5C 379.663,86.5977 376.329,85.931 372.5,86.5C 372.5,83.1667 372.5,79.8333 372.5,76.5C 380.903,75.8665 388.903,76.5332 396.5,78.5 Z"/></g>
<g><path style="opacity:1" fill="#727272" d="M 165.5,76.5 C 170.226,76.8409 174.226,78.5075 177.5,81.5C 172.997,80.5683 168.997,78.9017 165.5,76.5 Z"/></g>
<g><path style="opacity:1" fill="#444444" d="M 487.5,71.5 C 487.5,77.5 487.5,83.5 487.5,89.5C 486.009,86.8136 485.343,83.8136 485.5,80.5C 485.343,77.1864 486.009,74.1864 487.5,71.5 Z"/></g>
<g><path style="opacity:1" fill="#767676" d="M 354.5,71.5 C 353.608,76.4376 353.274,81.4376 353.5,86.5C 352.836,84.1903 352.503,81.6903 352.5,79C 352.525,76.0706 353.191,73.5706 354.5,71.5 Z"/></g>
<g><path style="opacity:1" fill="#6e6e6e" d="M 5.5,7.5 C 5.83333,7.5 6.16667,7.5 6.5,7.5C 6.5,57.8333 6.5,108.167 6.5,158.5C 5.67146,151.679 5.17146,144.679 5,137.5C 3.8932,141.888 3.3932,146.388 3.5,151C 3.5012,155.015 3.83453,158.849 4.5,162.5C 181.5,162.5 358.5,162.5 535.5,162.5C 537.833,162.5 540.167,162.5 542.5,162.5C 362.667,163.5 182.667,163.833 2.5,163.5C 2.5,150.167 2.5,136.833 2.5,123.5C 3.95178,100.682 4.61845,77.6821 4.5,54.5C 5.49628,39.0089 5.82962,23.3422 5.5,7.5 Z"/></g>
<g><path style="opacity:1" fill="#6e6e6e" d="M 528.5,88.5 C 528.5,87.5 528.5,86.5 528.5,85.5C 524.766,85.3227 521.099,85.6561 517.5,86.5C 521.029,84.5772 525.029,83.9106 529.5,84.5C 529.768,86.099 529.434,87.4324 528.5,88.5 Z"/></g>
<g><path style="opacity:1" fill="#585858" d="M 166.5,83.5 C 169.385,83.643 171.718,84.643 173.5,86.5C 170.615,86.357 168.282,85.357 166.5,83.5 Z"/></g>
<g><path style="opacity:1" fill="#595959" d="M 324.5,81.5 C 323.962,83.1172 323.629,84.7839 323.5,86.5C 326.167,86.5 328.833,86.5 331.5,86.5C 328.713,87.4767 325.713,87.81 322.5,87.5C 322.025,84.9179 322.692,82.9179 324.5,81.5 Z"/></g>
<g><path style="opacity:1" fill="#858585" d="M 430.5,84.5 C 425.695,85.4872 420.695,85.8205 415.5,85.5C 415.5,87.5 415.5,89.5 415.5,91.5C 414.532,89.3926 414.198,87.0593 414.5,84.5C 419.833,84.5 425.167,84.5 430.5,84.5 Z"/></g>
<g><path style="opacity:1" fill="#8c8c8c" d="M 226.5,83.5 C 228.935,84.2702 230.269,85.9368 230.5,88.5C 228.469,87.4613 227.136,85.7946 226.5,83.5 Z"/></g>
<g><path style="opacity:1" fill="#3f3f3f" d="M 136.5,59.5 C 137.831,66.4682 138.497,73.8016 138.5,81.5C 138.497,89.1984 137.831,96.5318 136.5,103.5C 136.5,88.8333 136.5,74.1667 136.5,59.5 Z"/></g>
<g><path style="opacity:1" fill="#858585" d="M 158.5,91.5 C 156.565,90.8505 154.565,90.5172 152.5,90.5C 152.517,92.5648 152.85,94.5648 153.5,96.5C 151.656,94.7211 150.99,92.3878 151.5,89.5C 154.388,88.9898 156.721,89.6565 158.5,91.5 Z"/></g>
<g><path style="opacity:1" fill="#414141" d="M 396.5,86.5 C 395.776,89.3411 394.61,92.0078 393,94.5C 392.184,95.8228 391.017,96.4894 389.5,96.5C 391.335,92.8338 393.669,89.5004 396.5,86.5 Z"/></g>
<g><path style="opacity:1" fill="#434343" d="M 477.5,59.5 C 478.496,73.3234 478.829,87.3234 478.5,101.5C 474.958,101.813 471.625,101.479 468.5,100.5C 471.5,100.5 474.5,100.5 477.5,100.5C 477.5,86.8333 477.5,73.1667 477.5,59.5 Z"/></g>
<g><path style="opacity:1" fill="#393939" d="M 99.5,84.5 C 96.5,84.5 93.5,84.5 90.5,84.5C 90.8235,91.0221 90.4902,97.3554 89.5,103.5C 89.5,96.8333 89.5,90.1667 89.5,83.5C 93.0419,83.1872 96.3752,83.5206 99.5,84.5 Z"/></g>
<g><path style="opacity:1" fill="#656565" d="M 202.5,90.5 C 200.833,90.5 199.167,90.5 197.5,90.5C 197.325,92.6208 197.659,94.6208 198.5,96.5C 196.656,94.7211 195.99,92.3878 196.5,89.5C 198.735,89.2053 200.735,89.5386 202.5,90.5 Z"/></g>
<g><path style="opacity:1" fill="#606060" d="M 441.5,59.5 C 441.333,72.8375 441.5,86.1708 442,99.5C 445.057,100.451 448.223,100.784 451.5,100.5C 451.177,93.9779 451.51,87.6446 452.5,81.5C 452.5,88.1667 452.5,94.8333 452.5,101.5C 448.5,101.5 444.5,101.5 440.5,101.5C 440.171,87.3234 440.504,73.3234 441.5,59.5 Z"/></g>
<g><path style="opacity:1" fill="#424242" d="M 208.5,96.5 C 212.468,97.7663 216.468,97.7663 220.5,96.5C 218.952,97.7943 216.952,98.4609 214.5,98.5C 212.048,98.4609 210.048,97.7943 208.5,96.5 Z"/></g>
<g><path style="opacity:1" fill="#373737" d="M 559.5,84.5 C 559.5,90.1667 559.5,95.8333 559.5,101.5C 555.029,102.089 551.029,101.423 547.5,99.5C 550.833,99.5 554.167,99.5 557.5,99.5C 557.847,94.3196 558.513,89.3196 559.5,84.5 Z"/></g>
<g><path style="opacity:1" fill="#494949" d="M 347.5,96.5 C 348.451,97.9187 348.784,99.5853 348.5,101.5C 344.298,101.817 340.298,101.483 336.5,100.5C 340.167,100.5 343.833,100.5 347.5,100.5C 347.5,99.1667 347.5,97.8333 347.5,96.5 Z"/></g>
<g><path style="opacity:1" fill="#adadad" d="M 520.5,98.5 C 519.77,99.7124 518.77,100.712 517.5,101.5C 511.167,102.833 504.833,102.833 498.5,101.5C 498.137,100.817 497.804,100.15 497.5,99.5C 505.295,102.306 512.961,101.973 520.5,98.5 Z"/></g>
<g><path style="opacity:1" fill="#c4c4c4" d="M 292.5,17.5 C 293.833,38.9896 294.5,60.823 294.5,83C 294.5,105.177 293.833,127.01 292.5,148.5C 292.5,105.5 292.5,62.5 292.5,19.5C 292.5,18.8333 292.5,18.1667 292.5,17.5 Z"/></g>
<g><path style="opacity:1" fill="#696969" d="M 163.5,103.5 C 166.833,103.5 170.167,103.5 173.5,103.5C 172.306,104.777 170.64,105.444 168.5,105.5C 166.36,105.444 164.694,104.777 163.5,103.5 Z"/></g>
<g><path style="opacity:1" fill="#616161" d="M 208.5,103.5 C 212.5,103.5 216.5,103.5 220.5,103.5C 220.389,104.117 220.056,104.617 219.5,105C 217.667,105.167 215.833,105.333 214,105.5C 211.705,105.453 209.871,104.787 208.5,103.5 Z"/></g>
<g><path style="opacity:1" fill="#989898" d="M 580.5,7.5 C 580.833,7.5 581.167,7.5 581.5,7.5C 582.665,57.665 582.832,107.998 582,158.5C 567.261,159.977 552.428,160.643 537.5,160.5C 536.833,160.5 536.167,160.5 535.5,160.5C 359.167,159.833 182.833,159.167 6.5,158.5C 197.833,158.5 389.167,158.5 580.5,158.5C 580.5,108.167 580.5,57.8333 580.5,7.5 Z"/></g>
<g><path style="opacity:1" fill="#2c2c2c" d="M 6.5,158.5 C 182.833,159.167 359.167,159.833 535.5,160.5C 358.597,160.833 181.764,160.499 5,159.5C 4.51722,160.448 4.35055,161.448 4.5,162.5C 3.83453,158.849 3.5012,155.015 3.5,151C 3.3932,146.388 3.8932,141.888 5,137.5C 5.17146,144.679 5.67146,151.679 6.5,158.5 Z"/></g>
<g><path style="opacity:1" fill="#0d0d0d" d="M 535.5,160.5 C 536.167,160.5 536.833,160.5 537.5,160.5C 536.833,161.167 536.167,161.833 535.5,162.5C 358.5,162.5 181.5,162.5 4.5,162.5C 4.35055,161.448 4.51722,160.448 5,159.5C 181.764,160.499 358.597,160.833 535.5,160.5 Z"/></g>
<g><path style="opacity:1" fill="#b1b1b1" d="M 585.5,2.5 C 586.832,56.2357 586.832,110.069 585.5,164C 391,164.833 196.666,164.666 2.5,163.5C 182.667,163.833 362.667,163.5 542.5,162.5C 556.667,163.347 570.667,163.347 584.5,162.5C 585.499,109.336 585.832,56.0026 585.5,2.5 Z"/></g>
</svg>
